<svg width="24" height="24" viewBox="0 0 24 24" fill="none" xmlns="http://www.w3.org/2000/svg">
<g id="logos:facebook" clip-path="url(#clip0_1764_6150)">
<path id="Vector" d="M23.6365 12.0001C23.6365 5.76252 18.4267 0.705933 12.0001 0.705933C5.57359 0.705933 0.36377 5.76243 0.36377 12.0001C0.36377 17.6372 4.61904 22.3097 10.182 23.157V15.2648H7.22741V12.0001H10.182V9.51182C10.182 6.68123 11.9192 5.1177 14.5771 5.1177C15.8503 5.1177 17.1819 5.33829 17.1819 5.33829V8.1177H15.7147C14.269 8.1177 13.8183 8.98831 13.8183 9.88152V12.0001H17.0456L16.5297 15.2648H13.8183V23.157C19.3812 22.3097 23.6365 17.6373 23.6365 12.0001Z" fill="#1877F2"/>
<path id="Vector_2" d="M16.5293 15.2647L17.0452 12H13.818V9.8815C13.818 8.9882 14.2688 8.11768 15.7143 8.11768H17.1816V5.33826C17.1816 5.33826 15.85 5.11768 14.5768 5.11768C11.9189 5.11768 10.1816 6.68121 10.1816 9.51179V12H7.22705V15.2647H10.1816V23.1569C10.7831 23.2484 11.391 23.2943 11.9998 23.2941C12.6086 23.2943 13.2165 23.2484 13.818 23.1569V15.2647H16.5293Z" fill="white"/>
</g>
<defs>
<clipPath id="clip0_1764_6150">
<rect width="24" height="24" fill="white"/>
</clipPath>
</defs>
</svg>
