<svg width="24" height="24" viewBox="0 0 24 24" fill="none" xmlns="http://www.w3.org/2000/svg">
<g id="logos:telegram" clip-path="url(#clip0_1764_6158)">
<path id="Vector" d="M12.0002 0.705933C9.00547 0.705933 6.13076 1.89658 4.01488 4.01387C1.89681 6.13201 0.706641 9.00461 0.706055 12.0001C0.706055 14.9942 1.89723 17.8689 4.01488 19.9862C6.13076 22.1035 9.00547 23.2942 12.0002 23.2942C14.9949 23.2942 17.8696 22.1035 19.9855 19.9862C22.1031 17.8689 23.2943 14.9942 23.2943 12.0001C23.2943 9.00587 22.1031 6.13117 19.9855 4.01387C17.8696 1.89658 14.9949 0.705933 12.0002 0.705933Z" fill="url(#paint0_linear_1764_6158)"/>
<path id="Vector_2" d="M5.81812 11.8808C9.11106 10.4464 11.3064 9.50074 12.404 9.04386C15.5417 7.73921 16.1928 7.51263 16.6181 7.50495C16.7116 7.50345 16.9199 7.52657 17.0558 7.63642C17.1687 7.72907 17.2005 7.85436 17.2164 7.94233C17.2305 8.03021 17.2499 8.23051 17.234 8.38686C17.0646 10.1727 16.3287 14.5065 15.9546 16.5068C15.7975 17.3532 15.4852 17.6369 15.1834 17.6646C14.5269 17.725 14.0293 17.2312 13.394 16.8149C12.4005 16.1632 11.8393 15.7577 10.874 15.1219C9.75871 14.387 10.4822 13.9831 11.1175 13.3231C11.2834 13.1503 14.174 10.5218 14.2287 10.2834C14.2358 10.2536 14.2428 10.1424 14.1758 10.0838C14.1105 10.025 14.0134 10.0452 13.9428 10.061C13.8422 10.0836 12.2558 11.1333 9.17812 13.2098C8.72812 13.5193 8.32047 13.6702 7.95341 13.6623C7.55106 13.6536 6.77459 13.4343 6.19753 13.2469C5.49165 13.0169 4.92871 12.8953 4.97812 12.5048C5.00283 12.3015 5.28341 12.0935 5.81812 11.8808Z" fill="white"/>
</g>
<defs>
<linearGradient id="paint0_linear_1764_6158" x1="1130.12" y1="0.705933" x2="1130.12" y2="2259.53" gradientUnits="userSpaceOnUse">
<stop stop-color="#2AABEE"/>
<stop offset="1" stop-color="#229ED9"/>
</linearGradient>
<clipPath id="clip0_1764_6158">
<rect width="24" height="24" fill="white"/>
</clipPath>
</defs>
</svg>
