<svg width="24" height="24" viewBox="0 0 24 24" fill="none" xmlns="http://www.w3.org/2000/svg">
<g id="skill-icons:instagram">
<g id="Group">
<path id="Vector" d="M17.6471 0.705933H5.64715C2.72328 0.705933 0.353027 3.07619 0.353027 6.00005V18.0001C0.353027 20.9239 2.72328 23.2942 5.64715 23.2942H17.6471C20.571 23.2942 22.9413 20.9239 22.9413 18.0001V6.00005C22.9413 3.07619 20.571 0.705933 17.6471 0.705933Z" fill="url(#paint0_radial_1764_6153)"/>
<path id="Vector_2" d="M17.6471 0.705933H5.64715C2.72328 0.705933 0.353027 3.07619 0.353027 6.00005V18.0001C0.353027 20.9239 2.72328 23.2942 5.64715 23.2942H17.6471C20.571 23.2942 22.9413 20.9239 22.9413 18.0001V6.00005C22.9413 3.07619 20.571 0.705933 17.6471 0.705933Z" fill="url(#paint1_radial_1764_6153)"/>
<path id="Vector_3" d="M11.6481 3.17651C9.25176 3.17651 8.95097 3.18701 8.00985 3.22981C7.0705 3.27287 6.42929 3.42154 5.86829 3.63975C5.28788 3.8651 4.79561 4.1666 4.3052 4.65719C3.81435 5.14769 3.51285 5.63995 3.28679 6.2201C3.06797 6.78128 2.91911 7.42275 2.87685 8.36166C2.83476 9.30287 2.82373 9.60375 2.82373 12.0001C2.82373 14.3965 2.83432 14.6963 2.87702 15.6375C2.92026 16.5768 3.06894 17.218 3.28697 17.779C3.5125 18.3594 3.814 18.8517 4.30458 19.3421C4.79491 19.833 5.28717 20.1352 5.86714 20.3605C6.42858 20.5787 7.06988 20.7274 8.00905 20.7705C8.95026 20.8132 9.25079 20.8237 11.647 20.8237C14.0436 20.8237 14.3434 20.8132 15.2845 20.7705C16.2238 20.7274 16.8658 20.5787 17.4272 20.3605C18.0073 20.1352 18.4989 19.833 18.9891 19.3421C19.48 18.8517 19.7814 18.3594 20.0076 17.7793C20.2244 17.218 20.3734 16.5766 20.4175 15.6376C20.4598 14.6965 20.4708 14.3965 20.4708 12.0001C20.4708 9.60375 20.4598 9.30304 20.4175 8.36184C20.3734 7.42248 20.2244 6.78137 20.0076 6.22037C19.7814 5.63996 19.48 5.14769 18.9891 4.65719C18.4984 4.16643 18.0075 3.86493 17.4267 3.63984C16.8642 3.42154 16.2226 3.27278 15.2833 3.22981C14.3421 3.18701 14.0424 3.17651 11.6453 3.17651H11.6481ZM10.8565 4.7666C11.0915 4.76625 11.3536 4.7666 11.6481 4.7666C14.004 4.7666 14.2832 4.77507 15.2136 4.81734C16.0738 4.85669 16.5408 5.00043 16.8518 5.12122C17.2636 5.2811 17.5572 5.47231 17.8658 5.78122C18.1746 6.09004 18.3658 6.38413 18.5261 6.79593C18.6469 7.10651 18.7908 7.57345 18.83 8.43375C18.8722 9.36393 18.8814 9.64328 18.8814 11.9981C18.8814 14.3529 18.8722 14.6324 18.83 15.5625C18.7906 16.4227 18.6469 16.8897 18.5261 17.2004C18.3662 17.6122 18.1746 17.9054 17.8658 18.214C17.557 18.5228 17.2638 18.714 16.8518 18.8739C16.5411 18.9952 16.0738 19.1386 15.2136 19.178C14.2834 19.2202 14.004 19.2294 11.6481 19.2294C9.292 19.2294 9.01273 19.2202 8.08264 19.178C7.22235 19.1383 6.75541 18.9945 6.44411 18.8737C6.03241 18.7138 5.73823 18.5227 5.42941 18.2138C5.12058 17.905 4.92947 17.6116 4.76914 17.1997C4.64835 16.889 4.50444 16.422 4.46526 15.5617C4.423 14.6316 4.41452 14.3522 4.41452 11.9959C4.41452 9.63966 4.423 9.36172 4.46526 8.43154C4.50461 7.57125 4.64835 7.10431 4.76914 6.79328C4.92911 6.38148 5.12058 6.0874 5.4295 5.77857C5.73832 5.46975 6.03241 5.27854 6.4442 5.11831C6.75523 4.99698 7.22235 4.8536 8.08264 4.81407C8.89661 4.77728 9.21205 4.76625 10.8565 4.7644V4.7666ZM16.3581 6.23166C15.7735 6.23166 15.2992 6.70548 15.2992 7.29013C15.2992 7.87469 15.7735 8.34896 16.3581 8.34896C16.9426 8.34896 17.4169 7.87469 17.4169 7.29013C17.4169 6.70557 16.9426 6.23131 16.3581 6.23131V6.23166ZM11.6481 7.46881C9.1457 7.46881 7.11682 9.49769 7.11682 12.0001C7.11682 14.5026 9.1457 16.5305 11.6481 16.5305C14.1505 16.5305 16.1787 14.5026 16.1787 12.0001C16.1787 9.49778 14.1503 7.46881 11.6479 7.46881H11.6481ZM11.6481 9.0589C13.2724 9.0589 14.5893 10.3756 14.5893 12.0001C14.5893 13.6245 13.2724 14.9414 11.6481 14.9414C10.0236 14.9414 8.70691 13.6245 8.70691 12.0001C8.70691 10.3756 10.0236 9.0589 11.6481 9.0589Z" fill="white"/>
</g>
</g>
<defs>
<radialGradient id="paint0_radial_1764_6153" cx="0" cy="0" r="1" gradientUnits="userSpaceOnUse" gradientTransform="translate(6.35303 25.0339) rotate(-90) scale(22.3866 20.8213)">
<stop stop-color="#FFDD55"/>
<stop offset="0.1" stop-color="#FFDD55"/>
<stop offset="0.5" stop-color="#FF543E"/>
<stop offset="1" stop-color="#C837AB"/>
</radialGradient>
<radialGradient id="paint1_radial_1764_6153" cx="0" cy="0" r="1" gradientUnits="userSpaceOnUse" gradientTransform="translate(-3.43059 2.33308) rotate(78.681) scale(10.0069 41.2489)">
<stop stop-color="#3771C8"/>
<stop offset="0.128" stop-color="#3771C8"/>
<stop offset="1" stop-color="#6600FF" stop-opacity="0"/>
</radialGradient>
</defs>
</svg>
