<svg width="24" height="24" viewBox="0 0 24 24" fill="none" xmlns="http://www.w3.org/2000/svg">
<g id="solar:copy-bold">
<g id="Group">
<path id="Vector" d="M15.24 2.00024H11.346C9.582 2.00024 8.184 2.00024 7.091 2.14824C5.965 2.30024 5.054 2.62024 4.336 3.34124C3.617 4.06224 3.298 4.97724 3.147 6.10724C3 7.20524 3 8.60824 3 10.3792V16.2172C3 17.7252 3.92 19.0172 5.227 19.5592C5.16 18.6492 5.16 17.3742 5.16 16.3122V11.3022C5.16 10.0212 5.16 8.91624 5.278 8.03224C5.405 7.08424 5.691 6.17624 6.425 5.43924C7.159 4.70224 8.064 4.41524 9.008 4.28724C9.888 4.16924 10.988 4.16924 12.265 4.16924H15.335C16.611 4.16924 17.709 4.16924 18.59 4.28724C18.326 3.61362 17.8652 3.03514 17.2676 2.6272C16.6701 2.21926 15.9635 2.00079 15.24 2.00024Z" fill="#FFF068"/>
<path id="Vector_2" d="M6.59961 11.397C6.59961 8.67101 6.59961 7.30801 7.44361 6.46101C8.28661 5.61401 9.64361 5.61401 12.3596 5.61401H15.2396C17.9546 5.61401 19.3126 5.61401 20.1566 6.46101C20.9996 7.30801 20.9996 8.67101 20.9996 11.397V16.217C20.9996 18.943 20.9996 20.306 20.1566 21.153C19.3126 22 17.9546 22 15.2396 22H12.3596C9.64461 22 8.28661 22 7.44361 21.153C6.59961 20.306 6.59961 18.943 6.59961 16.217V11.397Z" fill="#FFF068"/>
</g>
</g>
</svg>
