<svg width="34" height="34" viewBox="0 0 34 34" fill="none" xmlns="http://www.w3.org/2000/svg">
<path d="M25 1H8C3.85786 1 0.5 4.35786 0.5 8.5V25.5C0.5 29.6421 3.85786 33 8 33H25C29.1421 33 32.5 29.6421 32.5 25.5V8.5C32.5 4.35786 29.1421 1 25 1Z" fill="url(#paint0_radial_3652_6294)"/>
<path d="M25 1H8C3.85786 1 0.5 4.35786 0.5 8.5V25.5C0.5 29.6421 3.85786 33 8 33H25C29.1421 33 32.5 29.6421 32.5 25.5V8.5C32.5 4.35786 29.1421 1 25 1Z" fill="url(#paint1_radial_3652_6294)"/>
<path d="M16.5011 4.5C13.1064 4.5 12.6803 4.51488 11.347 4.5755C10.0163 4.6365 9.10787 4.84712 8.31313 5.15625C7.49088 5.4755 6.7935 5.90262 6.09875 6.59762C5.40338 7.2925 4.97625 7.98987 4.656 8.81175C4.346 9.60675 4.13512 10.5155 4.07525 11.8456C4.01562 13.179 4 13.6053 4 17.0001C4 20.395 4.015 20.8197 4.0755 22.153C4.13675 23.4837 4.34738 24.3921 4.65625 25.1869C4.97575 26.0091 5.40288 26.7065 6.09788 27.4013C6.7925 28.0966 7.48988 28.5247 8.3115 28.844C9.10687 29.1531 10.0154 29.3637 11.3459 29.4247C12.6792 29.4854 13.105 29.5002 16.4996 29.5002C19.8948 29.5002 20.3195 29.4854 21.6528 29.4247C22.9835 29.3637 23.8929 29.1531 24.6882 28.844C25.5101 28.5247 26.2065 28.0966 26.901 27.4013C27.5964 26.7065 28.0234 26.0091 28.3438 25.1873C28.651 24.3921 28.862 23.4835 28.9245 22.1532C28.9844 20.82 29 20.395 29 17.0001C29 13.6053 28.9844 13.1792 28.9245 11.8459C28.862 10.5151 28.651 9.60688 28.3438 8.81213C28.0234 7.98988 27.5964 7.2925 26.901 6.59762C26.2057 5.90237 25.5104 5.47525 24.6875 5.15637C23.8906 4.84712 22.9817 4.63638 21.651 4.5755C20.3176 4.51488 19.8931 4.5 16.4972 4.5H16.5011ZM15.3798 6.75262C15.7126 6.75213 16.084 6.75262 16.5011 6.75262C19.8388 6.75262 20.2342 6.76463 21.5522 6.8245C22.771 6.88025 23.4325 7.08388 23.8731 7.255C24.4565 7.4815 24.8724 7.75238 25.3096 8.19C25.7471 8.6275 26.0179 9.04412 26.245 9.6275C26.4161 10.0675 26.62 10.729 26.6755 11.9478C26.7354 13.2655 26.7484 13.6612 26.7484 16.9972C26.7484 20.3333 26.7354 20.7291 26.6755 22.0467C26.6198 23.2655 26.4161 23.927 26.245 24.3671C26.0185 24.9505 25.7471 25.3659 25.3096 25.8031C24.8721 26.2406 24.4568 26.5114 23.8731 26.738C23.433 26.9099 22.771 27.113 21.5522 27.1688C20.2345 27.2286 19.8388 27.2416 16.5011 27.2416C13.1634 27.2416 12.7677 27.2286 11.4501 27.1688C10.2314 27.1125 9.56987 26.9089 9.12887 26.7377C8.54562 26.5111 8.12887 26.2404 7.69137 25.8029C7.25387 25.3654 6.98312 24.9498 6.756 24.3661C6.58488 23.926 6.381 23.2645 6.3255 22.0457C6.26562 20.728 6.25362 20.3323 6.25362 16.9941C6.25362 13.6561 6.26562 13.2624 6.3255 11.9446C6.38125 10.7259 6.58488 10.0644 6.756 9.62375C6.98263 9.04037 7.25388 8.62375 7.6915 8.18625C8.129 7.74875 8.54562 7.47787 9.129 7.25087C9.56962 7.079 10.2314 6.87587 11.4501 6.81987C12.6032 6.76775 13.0501 6.75212 15.3798 6.7495V6.75262ZM23.1736 8.82812C22.3455 8.82812 21.6736 9.49938 21.6736 10.3276C21.6736 11.1558 22.3455 11.8276 23.1736 11.8276C24.0018 11.8276 24.6736 11.1558 24.6736 10.3276C24.6736 9.4995 24.0018 8.82762 23.1736 8.82762V8.82812ZM16.5011 10.5808C12.9561 10.5808 10.0819 13.455 10.0819 17.0001C10.0819 20.5452 12.9561 23.4181 16.5011 23.4181C20.0462 23.4181 22.9195 20.5452 22.9195 17.0001C22.9195 13.4551 20.046 10.5808 16.5009 10.5808H16.5011ZM16.5011 12.8334C18.8022 12.8334 20.6679 14.6988 20.6679 17.0001C20.6679 19.3013 18.8022 21.1669 16.5011 21.1669C14.1999 21.1669 12.3345 19.3013 12.3345 17.0001C12.3345 14.6988 14.1999 12.8334 16.5011 12.8334Z" fill="white"/>
<defs>
<radialGradient id="paint0_radial_3652_6294" cx="0" cy="0" r="1" gradientUnits="userSpaceOnUse" gradientTransform="translate(9 35.4646) rotate(-90) scale(31.7144 29.4969)">
<stop stop-color="#FFDD55"/>
<stop offset="0.1" stop-color="#FFDD55"/>
<stop offset="0.5" stop-color="#FF543E"/>
<stop offset="1" stop-color="#C837AB"/>
</radialGradient>
<radialGradient id="paint1_radial_3652_6294" cx="0" cy="0" r="1" gradientUnits="userSpaceOnUse" gradientTransform="translate(-4.86012 3.30512) rotate(78.681) scale(14.1765 58.436)">
<stop stop-color="#3771C8"/>
<stop offset="0.128" stop-color="#3771C8"/>
<stop offset="1" stop-color="#6600FF" stop-opacity="0"/>
</radialGradient>
</defs>
</svg>
