<svg width="32" height="32" viewBox="0 0 32 32" fill="none" xmlns="http://www.w3.org/2000/svg">
<path d="M20.32 2.66699H15.128C12.776 2.66699 10.912 2.66699 9.45467 2.86433C7.95333 3.06699 6.73867 3.49366 5.78133 4.45499C4.82267 5.41633 4.39733 6.63633 4.196 8.14299C4 9.60699 4 11.4777 4 13.839V21.623C4 23.6337 5.22667 25.3563 6.96933 26.079C6.88 24.8657 6.88 23.1657 6.88 21.7497V15.0697C6.88 13.3617 6.88 11.8883 7.03733 10.7097C7.20667 9.44566 7.588 8.23499 8.56667 7.25233C9.54533 6.26966 10.752 5.88699 12.0107 5.71633C13.184 5.55899 14.6507 5.55899 16.3533 5.55899H20.4467C22.148 5.55899 23.612 5.55899 24.7867 5.71633C24.4347 4.81816 23.8202 4.04685 23.0235 3.50293C22.2268 2.95902 21.2847 2.66772 20.32 2.66699Z" fill="#FFE600"/>
<path d="M8.7998 15.196C8.7998 11.5614 8.7998 9.74402 9.92514 8.61469C11.0491 7.48535 12.8585 7.48535 16.4798 7.48535H20.3198C23.9398 7.48535 25.7505 7.48535 26.8758 8.61469C27.9998 9.74402 27.9998 11.5614 27.9998 15.196V21.6227C27.9998 25.2574 27.9998 27.0747 26.8758 28.204C25.7505 29.3334 23.9398 29.3334 20.3198 29.3334H16.4798C12.8598 29.3334 11.0491 29.3334 9.92514 28.204C8.7998 27.0747 8.7998 25.2574 8.7998 21.6227V15.196Z" fill="#FFE600"/>
</svg>
