<svg width="35" height="34" viewBox="0 0 35 34" fill="none" xmlns="http://www.w3.org/2000/svg">
<path d="M17.5 1C13.2575 1 9.185 2.68675 6.1875 5.68625C3.18691 8.68694 1.50083 12.7565 1.5 17C1.5 21.2417 3.1875 25.3142 6.1875 28.3137C9.185 31.3132 13.2575 33 17.5 33C21.7425 33 25.815 31.3132 28.8125 28.3137C31.8125 25.3142 33.5 21.2417 33.5 17C33.5 12.7583 31.8125 8.68575 28.8125 5.68625C25.815 2.68675 21.7425 1 17.5 1Z" fill="url(#paint0_linear_3652_3379)"/>
<path d="M8.74213 16.8311C13.4071 14.7991 16.5171 13.4593 18.0721 12.8121C22.5171 10.9638 23.4396 10.6428 24.0421 10.6319C24.1746 10.6298 24.4696 10.6626 24.6621 10.8182C24.8221 10.9494 24.8671 11.1269 24.8896 11.2516C24.9096 11.3761 24.9371 11.6598 24.9146 11.8813C24.6746 14.4113 23.6321 20.5508 23.1021 23.3846C22.8796 24.5836 22.4371 24.9856 22.0096 25.0248C21.0796 25.1103 20.3746 24.4108 19.4746 23.8211C18.0671 22.8978 17.2721 22.3233 15.9046 21.4226C14.3246 20.3816 15.3496 19.8093 16.2496 18.8743C16.4846 18.6296 20.5796 14.9058 20.6571 14.5681C20.6671 14.5258 20.6771 14.3683 20.5821 14.2853C20.4896 14.2021 20.3521 14.2306 20.2521 14.2531C20.1096 14.2851 17.8621 15.7721 13.5021 18.7138C12.8646 19.1523 12.2871 19.3661 11.7671 19.3548C11.1971 19.3426 10.0971 19.0318 9.27963 18.7663C8.27963 18.4406 7.48213 18.2683 7.55213 17.7151C7.58713 17.4271 7.98463 17.1323 8.74213 16.8311Z" fill="white"/>
<defs>
<linearGradient id="paint0_linear_3652_3379" x1="1601.5" y1="1" x2="1601.5" y2="3201" gradientUnits="userSpaceOnUse">
<stop stop-color="#2AABEE"/>
<stop offset="1" stop-color="#229ED9"/>
</linearGradient>
</defs>
</svg>
