<svg width="56" height="56" viewBox="0 0 56 56" fill="none" xmlns="http://www.w3.org/2000/svg">
  <g id="place">
    <g id="Vector">
      <path
        d="M28.0001 4.66669C18.9701 4.66669 11.6667 11.97 11.6667 21C11.6667 33.25 28.0001 51.3334 28.0001 51.3334C28.0001 51.3334 44.3334 33.25 44.3334 21C44.3334 11.97 37.0301 4.66669 28.0001 4.66669ZM28.0001 26.8334C24.7801 26.8334 22.1667 24.22 22.1667 21C22.1667 17.78 24.7801 15.1667 28.0001 15.1667C31.2201 15.1667 33.8334 17.78 33.8334 21C33.8334 24.22 31.2201 26.8334 28.0001 26.8334Z"
        fill="#FFE600"/>
      <path
        d="M28.0001 26.8334C24.7801 26.8334 22.1667 24.22 22.1667 21C22.1667 17.78 24.7801 15.1667 28.0001 15.1667C31.2201 15.1667 33.8334 17.78 33.8334 21C33.8334 24.22 31.2201 26.8334 28.0001 26.8334Z"
        fill="#131313"/>
    </g>
    <path id="Vector_2"
          d="M12.1667 21C12.1667 12.2462 19.2462 5.16669 28.0001 5.16669C36.7539 5.16669 43.8334 12.2462 43.8334 21C43.8334 23.9614 42.8434 27.3138 41.325 30.7031C39.8095 34.0859 37.7845 37.4687 35.7523 40.4808C33.721 43.4914 31.6887 46.1226 30.1639 48.0013C29.4018 48.9405 28.7669 49.6909 28.3231 50.2061C28.2004 50.3485 28.0922 50.473 28.0001 50.5784C27.9079 50.473 27.7998 50.3485 27.6771 50.2061C27.2333 49.6909 26.5984 48.9405 25.8362 48.0013C24.3114 46.1226 22.2792 43.4914 20.2479 40.4808C18.2157 37.4687 16.1906 34.0859 14.6751 30.7031C13.1567 27.3138 12.1667 23.9614 12.1667 21Z"
          stroke="#131313"/>
  </g>
</svg>
