<svg width="56" height="56" viewBox="0 0 56 56" fill="none" xmlns="http://www.w3.org/2000/svg">
  <filter id="drop-shadow" x="-20%" y="-20%" width="140%" height="140%">
    <feDropShadow dx="0" dy="4" stdDeviation="4" flood-color="#000" flood-opacity="0.25"/>
  </filter>

  <g id="place" filter="url(#drop-shadow)">
    <path id="Vector"
          d="M28.0001 4.66675C18.9701 4.66675 11.6667 11.9701 11.6667 21.0001C11.6667 33.2501 28.0001 51.3334 28.0001 51.3334C28.0001 51.3334 44.3334 33.2501 44.3334 21.0001C44.3334 11.9701 37.0301 4.66675 28.0001 4.66675ZM28.0001 26.8334C24.7801 26.8334 22.1667 24.2201 22.1667 21.0001C22.1667 17.7801 24.7801 15.1667 28.0001 15.1667C31.2201 15.1667 33.8334 17.7801 33.8334 21.0001C33.8334 24.2201 31.2201 26.8334 28.0001 26.8334Z"
          fill="#FFE600"/>
    <path id="Vector_2"
          d="M12.1667 21.0001C12.1667 12.2462 19.2462 5.16675 28.0001 5.16675C36.7539 5.16675 43.8334 12.2462 43.8334 21.0001C43.8334 23.9614 42.8434 27.3139 41.325 30.7032C39.8095 34.086 37.7845 37.4688 35.7523 40.4808C33.721 43.4915 31.6887 46.1226 30.1639 48.0014C29.4018 48.9405 28.7669 49.691 28.3231 50.2061C28.2004 50.3486 28.0922 50.473 28.0001 50.5785C27.9079 50.473 27.7998 50.3486 27.6771 50.2061C27.2333 49.691 26.5984 48.9405 25.8362 48.0014C24.3114 46.1226 22.2792 43.4915 20.2479 40.4808C18.2157 37.4688 16.1906 34.086 14.6751 30.7032C13.1567 27.3139 12.1667 23.9614 12.1667 21.0001Z"
          stroke="#FFF068"/>
  </g>
</svg>
