<svg width="27" height="27" viewBox="0 0 27 27" fill="none" xmlns="http://www.w3.org/2000/svg">
<path d="M24.2929 25.7071L25 26.4142L26.4142 25L25.7071 24.2929L24.2929 25.7071ZM19.9071 18.4929C19.5166 18.1024 18.8834 18.1024 18.4929 18.4929C18.1024 18.8834 18.1024 19.5166 18.4929 19.9071L19.9071 18.4929ZM21.3333 11.6667C21.3333 17.0054 17.0054 21.3333 11.6667 21.3333V23.3333C18.11 23.3333 23.3333 18.11 23.3333 11.6667H21.3333ZM11.6667 21.3333C6.32791 21.3333 2 17.0054 2 11.6667H0C0 18.11 5.22334 23.3333 11.6667 23.3333V21.3333ZM2 11.6667C2 6.32791 6.32791 2 11.6667 2V0C5.22334 0 0 5.22334 0 11.6667H2ZM11.6667 2C17.0054 2 21.3333 6.32791 21.3333 11.6667H23.3333C23.3333 5.22334 18.11 0 11.6667 0V2ZM25.7071 24.2929L19.9071 18.4929L18.4929 19.9071L24.2929 25.7071L25.7071 24.2929Z" fill="#131313"/>
</svg>
