<svg width="32" height="20" viewBox="0 0 32 20" fill="none" xmlns="http://www.w3.org/2000/svg">
<g clip-path="url(#clip0_1651_5625)">
<path d="M27.7755 10.8456C28.0013 13.9005 28.1556 16.9327 28.2437 20.0006C21.262 17.3097 14.2831 16.611 7.30146 17.9109C4.86682 18.3627 2.43219 19.0581 -0.00244141 20.0006V2.17482C8.95943 -0.59411 17.9984 -0.717606 26.9658 1.79783C28.6458 2.26907 30.3258 2.8313 31.9976 3.48779C30.5103 5.85373 29.1112 8.32042 27.7755 10.8456Z" fill="#345BB7"/>
<path d="M28.2437 20.0008C21.262 17.3099 14.2831 16.6112 7.30146 17.9111C4.86682 18.3629 2.43219 19.0584 -0.00244141 20.0008V11.0603C6.10342 8.96086 12.2231 8.21988 18.3702 8.84062C21.4961 9.15586 24.6303 9.82209 27.7755 10.8458C28.0013 13.9007 28.1556 16.9329 28.2437 20.0008Z" fill="#FFCE00"/>
<g style="mix-blend-mode:soft-light">
<path d="M27.7768 10.8455C28.0026 13.9004 28.1568 16.9326 28.245 20.0005C21.2633 17.3096 14.2844 16.6109 7.30273 17.9108L18.3743 8.8403L26.9671 1.79773C28.6471 2.26897 30.3271 2.8312 31.9988 3.48769C30.5116 5.85363 29.1125 8.32032 27.7768 10.8455Z" fill="#102242"/>
</g>
</g>
<defs>
<clipPath id="clip0_1651_5625">
<rect width="32" height="20" fill="white"/>
</clipPath>
</defs>
</svg>
