<svg width="40" height="40" fill="none" xmlns="http://www.w3.org/2000/svg"><path d="M27.157 15.873C27.5 17.21 27.5 20 27.5 20s0 2.79-.343 4.127c-.19.738-.747 1.32-1.453 1.516C24.422 26 20 26 20 26s-4.42 0-5.704-.357a2.108 2.108 0 0 1-1.453-1.517C12.5 22.79 12.5 20 12.5 20s0-2.79.343-4.127c.19-.738.748-1.32 1.453-1.516C15.58 14 20 14 20 14s4.422 0 5.704.357c.709.2 1.265.78 1.453 1.517ZM18.5 22.625 23 20l-4.5-2.625v5.25Z" fill="#FFE600"/><rect x=".5" y=".5" width="39" height="39" rx="19.5" stroke="#FFE600"/></svg>