<svg xmlns="http://www.w3.org/2000/svg">
  <defs class="map-page">
    <symbol id="filterIcon">
      <svg xmlns="http://www.w3.org/2000/svg" width="32" height="32" viewBox="0 0 32 32" fill="none">
        <path d="M26.6783 6H5L13.6713 16.2538V23.3426L18.007 25.5105V16.2538L26.6783 6Z" stroke="#131313"
              stroke-linecap="round" stroke-linejoin="round"/>
      </svg>
    </symbol>
    <symbol id="filterClear">
      <svg xmlns="http://www.w3.org/2000/svg" width="16" height="16" viewBox="0 0 16 16" fill="none">
        <rect width="16" height="16" rx="8" fill="#FEFEFE"/>
        <path fill-rule="evenodd" clip-rule="evenodd" d="M11.9796 7.60696C12.0867 8.6601 11.7691 9.71245 11.0968 10.5325C10.4244 11.3526 9.4524 11.8731 8.39451 11.9797C7.33663 12.0863 6.27954 11.7701 5.4558 11.1008C4.63207 10.4315 4.10915 9.46381 4.00209 8.41066C3.99159 8.31196 4.02091 8.21314 4.08359 8.13596C4.14628 8.05877 4.2372 8.00953 4.33635 7.99908C4.4355 7.98863 4.53476 8.01782 4.61229 8.08022C4.68982 8.14262 4.73928 8.23313 4.74978 8.33184C4.80766 8.87739 5.00362 9.39941 5.31933 9.84904C5.63503 10.2987 6.06016 10.6612 6.55493 10.9028C7.04969 11.1443 7.59793 11.2569 8.14832 11.2301C8.69872 11.2033 9.23328 11.0379 9.702 10.7495C10.1707 10.461 10.5583 10.0588 10.8284 9.58068C11.0985 9.10251 11.2423 8.56394 11.2464 8.01537C11.2505 7.4668 11.1147 6.92616 10.8518 6.44404C10.5889 5.96192 10.2074 5.55408 9.74306 5.25869V6.12027C9.74306 6.21951 9.70346 6.31468 9.63298 6.38485C9.56249 6.45502 9.46689 6.49444 9.36721 6.49444C9.26753 6.49444 9.17193 6.45502 9.10145 6.38485C9.03096 6.31468 8.99136 6.21951 8.99136 6.12027V4H11.1212C11.2209 4 11.3165 4.03942 11.3869 4.10959C11.4574 4.17976 11.497 4.27493 11.497 4.37417C11.497 4.4734 11.4574 4.56857 11.3869 4.63874C11.3165 4.70891 11.2209 4.74833 11.1212 4.74833H10.3264C10.7907 5.08001 11.1784 5.50666 11.4635 5.99968C11.7486 6.4927 11.9246 7.04071 11.9796 7.60696Z" fill="#454545"/>
      </svg>
    </symbol>
    <symbol id="arrowFilterShow">
      <svg xmlns="http://www.w3.org/2000/svg"
           width="24" height="24" viewBox="0 0 24 24" fill="none">
        <path d="M12 14.5L17 9.5H7L12 14.5Z" fill="#484848"/>
      </svg>
    </symbol>
  </defs>

  <defs class="news-page">
    <symbol id="arrowArticleItem">
      <svg xmlns="http://www.w3.org/2000/svg" width="24" height="24" viewBox="0 0 24 24" fill="#131313">
        <path d="M6.5 5.5V7.5H15.09L5.5 17.09L6.91 18.5L16.5 8.91V17.5H18.5V5.5H6.5Z" fill="#131313"/>
      </svg>
    </symbol>
  </defs>
</svg>

