<svg xmlns="http://www.w3.org/2000/svg">
  <defs class="shared">
    <symbol id="logo">
      <svg xmlns="http://www.w3.org/2000/svg" viewBox="0 0 80 76" fill="none">
        <g clip-path="url(#clip0_5966_2642)">
          <path d="M27.636 19.9733V23.8684L27.3506 24.0813C25.8631 25.1951 24.3452 27.2765 23.3981 29.4918C22.7788 30.9464 22.4934 32.0054 22.2506 33.7825C22.0989 34.9206 22.0989 37.6958 22.2567 38.6818C22.8759 42.6195 24.7885 45.5712 28.0185 47.5796C28.9111 48.1334 30.0039 48.6446 30.7385 48.8516C31.121 48.955 31.461 49.0585 31.4914 49.0829C31.5339 49.1073 31.4003 50.2393 31.0907 52.4667C30.8296 54.3047 30.6171 55.8384 30.6171 55.8688C30.6111 55.8992 30.4289 55.9053 30.2043 55.887C29.9735 55.8688 29.3421 55.8079 28.7897 55.7592C27.0896 55.6009 24.6549 55.5279 23.4893 55.6009C18.456 55.9052 15.0195 56.6112 13.0645 57.7371C12.518 58.0597 11.4616 58.9178 10.9698 59.4472C9.75544 60.7618 9.23335 61.9547 9.13617 63.6467C9.11185 64.1213 9.11797 64.304 9.16652 64.304C9.20903 64.304 9.37294 64.0362 9.53686 63.7075C11.1519 60.4819 13.793 58.8265 18.377 58.1631C19.1462 58.0516 19.8887 57.9623 20.6023 57.8953C20.5806 58.0141 20.5697 58.1435 20.5697 58.2834C20.5697 58.5918 20.5889 58.904 20.6274 59.2201C20.6659 59.5361 20.7004 59.8483 20.7312 60.1567C20.762 60.4497 20.7928 60.7387 20.8235 61.024C20.8542 61.3092 20.8696 61.5983 20.8696 61.8912C20.8696 62.3229 20.862 62.747 20.8466 63.1633C20.8312 63.5796 20.8081 64.0036 20.7774 64.4353C20.7312 65.2216 20.7082 66.0156 20.7082 66.8173C20.7697 67.2182 20.8121 67.6577 20.8351 68.1356C20.8581 68.6135 20.8966 69.0568 20.9505 69.4653C21.0043 69.8739 21.1081 70.2169 21.2619 70.4944C21.4158 70.772 21.6541 70.9107 21.9772 70.9107C22.0694 70.9107 22.2041 70.9184 22.3809 70.9338C22.5578 70.9492 22.7424 70.9646 22.9346 70.9801C23.1269 70.9955 23.3038 71.0109 23.4653 71.0264C23.6268 71.0418 23.7306 71.0495 23.7768 71.0495C23.9305 71.0495 24.1959 71.0302 24.5728 70.9916C24.9496 70.9531 25.3303 70.8798 25.7149 70.772C26.0994 70.664 26.4378 70.5214 26.73 70.3441C27.0222 70.1668 27.1683 69.9394 27.1683 69.6619C27.1683 69.4615 27.126 69.2726 27.0414 69.0953C26.9569 68.918 26.8569 68.7483 26.7415 68.5865C26.6261 68.4247 26.5108 68.2589 26.3954 68.0893C26.28 67.9197 26.1993 67.7346 26.1531 67.5342C26.0916 67.3029 26.0339 67.0023 25.9801 66.6322C25.9262 66.2622 25.8762 65.8652 25.8301 65.4412C25.784 65.0172 25.7456 64.5778 25.7148 64.123C25.684 63.6682 25.6609 63.2403 25.6456 62.8394C25.6302 62.6698 25.6225 62.4732 25.6225 62.2497C25.6225 62.0261 25.6225 61.7988 25.6225 61.5675C25.6225 61.0278 25.634 60.4728 25.6571 59.9023C25.6801 59.3319 25.7148 58.8539 25.7609 58.4685C26.7453 58.4222 27.7451 58.3991 28.7602 58.3991C28.7602 58.6921 28.7794 58.9811 28.8179 59.2664C28.8564 59.5516 28.8909 59.8406 28.9218 60.1336C28.9525 60.4266 28.9833 60.7157 29.014 61.0009C29.0448 61.2861 29.0602 61.5752 29.0602 61.8681C29.0602 62.0069 29.0602 62.1418 29.0602 62.2729C29.0602 62.404 29.0525 62.5312 29.0371 62.6545C29.0063 63.3483 28.9756 64.0382 28.9449 64.7243C28.9141 65.4104 28.8987 66.1004 28.8987 66.7942C28.9602 67.1951 29.0026 67.6345 29.0256 68.1124C29.0486 68.5904 29.0871 69.0336 29.141 69.4421C29.1948 69.8507 29.2987 70.1937 29.4524 70.4713C29.6062 70.7488 29.8446 70.8876 30.1677 70.8876C30.26 70.8876 30.3946 70.8953 30.5715 70.9107C30.7484 70.9261 30.933 70.9416 31.1252 70.957C31.3175 70.9724 31.4944 70.9879 31.6559 71.0033C31.8175 71.0187 31.9212 71.0264 31.9674 71.0264C32.1213 71.0264 32.3866 71.0071 32.7634 70.9686C33.1402 70.93 33.5209 70.8568 33.9054 70.7488C34.2899 70.6409 34.6283 70.4983 34.9206 70.3209C35.2129 70.1436 35.359 69.9162 35.359 69.6387C35.359 69.4383 35.3166 69.2494 35.2321 69.0721C35.1475 68.8948 35.0475 68.7252 34.9321 68.5633C34.8167 68.4014 34.7052 68.2357 34.5976 68.0661C34.4899 67.8965 34.413 67.7115 34.3669 67.511C34.29 67.2027 34.2169 66.7748 34.1477 66.2275C34.0785 65.6801 34.017 65.1135 33.9632 64.5277C33.9093 63.9417 33.867 63.3713 33.8363 62.8162C33.8055 62.2612 33.7901 61.8218 33.7901 61.498C33.7901 60.9738 33.8131 60.4573 33.8593 59.9485C33.89 59.6864 33.9132 59.4204 33.9285 59.1506L33.9303 59.1185C35.5729 59.3665 36.6893 59.435 38.3951 59.435C47.2199 59.435 53.4689 55.0492 60.2101 55.0348C63.0698 55.0348 65.4134 55.4912 68.2549 56.6172C69.609 57.1533 82.5569 61.3603 79.548 55.0896C78.1012 52.0745 71.0252 49.8198 67.7449 49.5695C67.2773 49.5329 66.6763 49.4843 66.4091 49.466L65.9295 49.4234L66.8341 48.6688C68.516 47.2629 69.3417 46.3135 69.9791 45.0536C70.3313 44.3598 70.7563 43.1244 70.8717 42.4792C71.2178 40.4708 69.7424 39.5032 68.3034 40.7995C67.9209 41.1465 67.6235 41.5968 67.1984 42.4854C66.3241 44.2929 66.0328 45.5162 65.887 48.0237C65.8263 49.1071 65.7838 49.4905 65.7292 49.4357C65.717 49.4235 65.5956 48.8636 65.462 48.188C65.0734 46.1979 64.8791 45.5466 64.3996 44.5851C63.9077 43.6052 62.7542 42.0168 62.1653 41.5116C60.6413 40.1971 58.6438 40.5439 58.4981 42.1568C58.4495 42.6315 58.5588 43.0392 58.9352 43.8305C59.3663 44.7434 59.8581 45.4676 60.5139 46.1614C61.4306 47.1292 62.3171 47.7255 64.6304 48.9367C65.1283 49.1923 65.5229 49.4114 65.5108 49.4236C65.4986 49.4358 65.0007 49.4784 64.3997 49.5149C60.3196 49.7644 56.0938 50.8294 51.0726 52.8805C47.1747 54.4689 42.3235 55.8869 39.385 56.2947C38.5471 56.4104 36.8106 56.5442 36.7621 56.4956C36.7377 56.4652 36.0578 53.4343 35.2624 49.7826L35.2199 49.5939L36.24 49.5574C39.1907 49.46 42.1658 48.4071 45.2137 46.3927C46.1426 45.7779 46.7558 45.2667 47.6787 44.3478C48.7169 43.301 49.2573 42.601 49.7005 41.7247C50.0892 40.9517 50.2106 40.4101 50.1012 39.9719C49.9008 39.1564 49.0569 38.8035 48.4012 39.2599C48.2676 39.3512 47.9398 39.6981 47.6665 40.0329C47.3933 40.3615 47.1626 40.6232 47.1505 40.611C47.1323 40.5988 47.193 40.3311 47.278 40.0145C47.5148 39.1259 47.4662 38.7547 47.0412 38.274C46.4645 37.6167 45.6812 37.6106 45.0983 38.2557C44.7705 38.6148 44.6308 38.9495 44.479 39.6981C44.2361 40.9214 43.8233 41.5605 43.034 41.9317C42.2265 42.3213 41.4371 42.443 40.5082 42.3395C39.0753 42.1691 38.2011 41.7978 37.436 41.031C37.1446 40.7389 36.8531 40.3737 36.7195 40.1363C36.0699 38.9617 35.827 37.3976 36.1003 36.1256C36.3735 34.8293 36.8592 33.6607 37.9157 31.7375C38.8749 29.9908 39.0268 29.51 38.9721 28.3963C38.9296 27.5442 38.79 27.0087 38.3832 26.1688C37.8489 25.0611 36.9868 24.0812 35.9182 23.3692L35.4081 23.0284L35.396 19.5593L35.3778 16.0903L33.5077 19.0663C32.4756 20.6974 31.6073 22.0789 31.5709 22.1276C31.5406 22.1763 31.498 22.1946 31.4859 22.158C31.4494 22.0789 27.7094 16.151 27.6669 16.1146C27.6487 16.0963 27.636 17.8311 27.636 19.9733ZM48.486 4.90558C48.7841 5.62045 49.0216 6.30214 49.1984 6.95066C49.3752 7.59919 49.5236 8.24194 49.6437 8.87882C49.6833 9.29468 49.6597 9.72923 49.5726 10.1826C49.4856 10.6359 49.3498 11.0745 49.1651 11.4984C49.1072 11.5704 49.0409 11.6366 48.9661 11.6968C48.8913 11.757 48.8117 11.813 48.7274 11.8646C48.1546 12.1452 47.577 12.4015 46.9945 12.6335C46.412 12.8655 45.8219 13.0898 45.224 13.3063C45.0451 13.352 44.8474 13.3849 44.631 13.4054C44.4145 13.4257 44.221 13.3986 44.0504 13.3239C43.9836 13.2947 43.9221 13.2633 43.8661 13.23C43.8099 13.1965 43.7652 13.1372 43.7318 13.0517C43.5494 12.6796 43.377 12.3098 43.2147 11.9421C43.0524 11.5745 42.9263 11.2049 42.8363 10.8335C42.7464 10.4621 42.7003 10.081 42.6982 9.69055C42.6961 9.29999 42.7639 8.89587 42.9018 8.478C43.1416 8.06938 43.4729 7.65875 43.8955 7.24611C44.3182 6.83346 44.7853 6.45573 45.2968 6.11291C45.8083 5.77009 46.342 5.48794 46.8978 5.26636C47.4536 5.04477 47.9831 4.92454 48.486 4.90558ZM46.1124 12.0882C46.1792 12.1174 46.2515 12.1137 46.3294 12.0769C46.4072 12.0402 46.4841 11.9853 46.5601 11.9122C46.6361 11.8392 46.7086 11.7537 46.7779 11.6556C46.8471 11.5575 46.9118 11.4596 46.9719 11.362C47.0983 11.072 47.1801 10.7625 47.2175 10.4335C47.2548 10.1045 47.2691 9.76762 47.2603 9.42288C47.2514 9.07814 47.2245 8.73431 47.1796 8.3914C47.1346 8.04849 47.0877 7.72024 47.0388 7.40666C47.0094 7.19012 46.9494 6.99346 46.8586 6.81641C46.7678 6.63946 46.6408 6.51529 46.4776 6.44381C46.396 6.40808 46.311 6.41073 46.2225 6.45169C46.134 6.49266 46.0469 6.56074 45.9612 6.65605C45.8755 6.75135 45.7916 6.86297 45.7094 6.9908C45.6273 7.11864 45.557 7.2495 45.4987 7.38338C45.4242 7.55447 45.3736 7.73151 45.3468 7.91461C45.32 8.0977 45.2949 8.27713 45.2714 8.45271C45.2367 8.69436 45.2327 8.98256 45.2591 9.31731C45.2855 9.65207 45.3358 9.99287 45.41 10.3396C45.4841 10.6865 45.581 11.0167 45.7006 11.3301C45.8201 11.6437 45.9575 11.8964 46.1124 12.0882ZM53.7521 19.4263C53.8747 19.2858 53.9054 19.1429 53.8441 18.9975C53.7828 18.8521 53.6455 18.6859 53.4323 18.4988L50.051 15.5331C49.8683 15.3729 49.6518 15.2881 49.4016 15.2789C49.1515 15.2698 48.8917 15.3115 48.6225 15.4043C48.3533 15.497 48.0807 15.6245 47.8046 15.7868C47.5285 15.949 47.2742 16.114 47.0415 16.282C46.8088 16.45 46.6059 16.6115 46.4327 16.7669C46.2594 16.9223 46.1381 17.0397 46.0688 17.119C46.014 16.8984 46.0285 16.6631 46.1122 16.4131C46.196 16.1631 46.3009 15.9289 46.427 15.7106C46.5531 15.4924 46.681 15.3027 46.8108 15.1416C46.9406 14.9805 47.0242 14.8786 47.0615 14.8359C47.3067 14.555 47.529 14.3158 47.7281 14.1185C47.9272 13.9212 48.1185 13.779 48.3021 13.6919C48.4857 13.6049 48.6707 13.5839 48.8573 13.629C49.0439 13.6741 49.2498 13.7954 49.4753 13.9932C49.4981 13.9916 49.5175 13.9817 49.5335 13.9634C49.5495 13.945 49.5629 13.9297 49.5735 13.9175C49.7866 13.6732 50.0571 13.4899 50.3845 13.3674C50.712 13.2448 51.0619 13.1582 51.4343 13.1074C51.8066 13.0566 52.1835 13.0286 52.5646 13.0233C52.9457 13.0179 53.2966 13.0102 53.6172 13.0003C53.7429 12.992 53.863 12.9868 53.9777 12.9849C54.0923 12.983 54.1922 12.9332 54.2775 12.8355C54.3628 12.7378 54.4386 12.6047 54.5049 12.4364C54.5712 12.2681 54.6257 12.0977 54.6688 11.9252C54.7119 11.7527 54.74 11.5941 54.7534 11.4494C54.7667 11.3048 54.7631 11.2072 54.7425 11.1569C54.7493 11.0874 54.7386 11.0134 54.7105 10.9347C54.6823 10.8561 54.6568 10.7744 54.634 10.6897C54.6111 10.6049 54.5957 10.524 54.5877 10.4469C54.5797 10.3699 54.6023 10.3008 54.6556 10.2396C54.7143 10.1725 54.784 10.142 54.8647 10.148C54.9454 10.1542 55.0239 10.169 55.1 10.1926L56.5942 10.7915C56.6178 10.8014 56.649 10.8181 56.6879 10.8413C56.7267 10.8646 56.7672 10.8921 56.8096 10.9238C56.8518 10.9555 56.8896 10.9832 56.9226 11.0068C56.9557 11.0305 56.9784 11.0477 56.9906 11.0583C57.1916 11.2347 57.3251 11.4299 57.391 11.644C57.4569 11.8582 57.4847 12.082 57.4744 12.3156C57.464 12.5492 57.4281 12.7845 57.3664 13.0215C57.3047 13.2586 57.2526 13.4878 57.2099 13.7091C57.139 14.0243 57.0536 14.3349 56.9535 14.6406C56.8534 14.9463 56.7459 15.2511 56.6313 15.5548C56.5167 15.8586 56.3992 16.1627 56.2789 16.4669C56.1586 16.7712 56.0485 17.079 55.9488 17.3905C55.9016 17.5431 55.8487 17.7178 55.79 17.9143C55.7313 18.1109 55.6824 18.3025 55.6431 18.4892C55.6039 18.6759 55.5749 18.8446 55.5563 18.9953C55.5377 19.1461 55.542 19.255 55.5695 19.3223C55.6303 19.4619 55.6987 19.5839 55.7745 19.6881C55.8503 19.7923 55.921 19.8839 55.9864 19.9629C56.0519 20.0419 56.1113 20.1156 56.1646 20.184C56.2179 20.2523 56.2552 20.3174 56.2766 20.3791C56.0086 20.4028 55.7038 20.4591 55.3628 20.548C55.0216 20.6369 54.6768 20.7362 54.3284 20.8458C53.98 20.9553 53.6421 21.0714 53.3145 21.1939C52.9871 21.3164 52.7064 21.4315 52.4726 21.5391C52.3721 21.5803 52.267 21.6175 52.1573 21.6507C52.0476 21.6839 51.9418 21.7096 51.8397 21.728C51.7377 21.7463 51.6479 21.7537 51.5701 21.7503C51.4924 21.7469 51.4354 21.7292 51.3988 21.6971C51.3318 21.6383 51.312 21.5778 51.3394 21.5156C51.3668 21.4534 51.4018 21.3979 51.4445 21.349C51.6044 21.1659 51.7853 20.9956 51.9871 20.8383C52.189 20.6811 52.3939 20.5293 52.6023 20.3832C52.8105 20.237 53.0143 20.0868 53.2134 19.9326C53.4125 19.7784 53.5922 19.6095 53.7521 19.4263ZM53.7236 13.6918C53.486 13.7422 53.2577 13.8035 53.0388 13.8756C52.8199 13.9477 52.6009 14.0414 52.382 14.1567C52.163 14.272 51.9345 14.4167 51.6966 14.5907C51.4586 14.7647 51.2048 14.9816 50.9352 15.2411L53.0462 17.0926C53.1193 16.898 53.1827 16.7298 53.2364 16.5883C53.2901 16.4467 53.3465 16.2804 53.4055 16.0896C53.4645 15.8987 53.53 15.6543 53.6019 15.3562C53.6739 15.0581 53.767 14.6464 53.8812 14.1213C53.9033 14.022 53.8948 13.9363 53.8555 13.8642C53.8163 13.7921 53.7723 13.7346 53.7236 13.6918ZM60.3646 25.1818C60.5813 25.0912 60.7976 25.0051 61.0137 24.9236C61.2297 24.842 61.4492 24.7634 61.6721 24.6878C61.6614 24.367 61.6386 24.0489 61.6039 23.7337C61.5692 23.4185 61.5751 23.1061 61.6217 22.7965C61.4305 22.8852 61.2279 22.9831 61.0137 23.0903C60.7996 23.1974 60.5944 23.3051 60.3983 23.4136C60.2022 23.522 60.0199 23.6267 59.8515 23.728C59.6831 23.8291 59.5491 23.9182 59.4496 23.995C59.3618 24.058 59.2885 24.1349 59.2297 24.2255C59.1709 24.316 59.114 24.4058 59.0588 24.4947C59.0038 24.5837 58.9418 24.6667 58.8731 24.7439C58.8043 24.821 58.7213 24.8799 58.6242 24.9205C58.4898 24.9767 58.35 24.9516 58.2048 24.8452C58.0596 24.7388 57.922 24.603 57.7918 24.4376C57.6615 24.2723 57.5489 24.1018 57.4539 23.9261C57.3588 23.7504 57.2957 23.6251 57.2646 23.5503C57.2552 23.5278 57.238 23.4757 57.2126 23.3939C57.1874 23.3122 57.159 23.2229 57.1275 23.1262C57.096 23.0294 57.0661 22.9365 57.0377 22.8472C57.0094 22.758 56.9858 22.6909 56.9672 22.646C56.9017 22.4887 56.9206 22.3445 57.0239 22.2134C57.1272 22.0822 57.2724 21.9622 57.4596 21.8531C57.6466 21.7442 57.8537 21.6356 58.0806 21.5275C58.3075 21.4194 58.5119 21.3098 58.6936 21.1987C59.0821 21.0362 59.4716 20.8865 59.862 20.7496C60.0774 20.6771 60.2875 20.6025 60.4924 20.5256C60.6973 20.4487 60.9042 20.3666 61.1135 20.2791C61.2555 20.2197 61.3924 20.1536 61.5244 20.0809C61.6564 20.0081 61.7903 19.9345 61.9259 19.8602C62.0692 19.7828 62.2135 19.7026 62.3588 19.6198C62.5042 19.5371 62.6515 19.4644 62.801 19.4019C63.0326 19.305 63.2301 19.295 63.3937 19.3717C63.5571 19.4484 63.6841 19.5954 63.7745 19.8125C63.8836 20.0746 63.9845 20.338 64.077 20.6026C64.1696 20.8673 64.2614 21.13 64.3525 21.3909C64.3158 21.5557 64.2514 21.675 64.1593 21.7487C64.0672 21.8224 63.9501 21.8889 63.8082 21.9483C63.6812 22.0014 63.5507 22.0515 63.4169 22.0987C63.2831 22.1459 63.1495 22.1885 63.0162 22.2267C62.8275 22.2793 62.6436 22.343 62.4642 22.418C62.4009 22.7083 62.3683 23.0253 62.3666 23.3688C62.3648 23.7125 62.3756 24.0597 62.3988 24.4105C62.4616 24.393 62.5248 24.3709 62.5884 24.3444C62.6518 24.3178 62.7173 24.2905 62.7845 24.2624C62.9264 24.203 63.0634 24.1369 63.1954 24.0642C63.3274 23.9914 63.4612 23.9178 63.5969 23.8435C63.7401 23.7661 63.8844 23.6859 64.0298 23.6032C64.1751 23.5204 64.3225 23.4477 64.472 23.3852C64.7035 23.2884 64.9011 23.2783 65.0646 23.355C65.2281 23.4317 65.3551 23.5787 65.4455 23.7959C65.5545 24.058 65.6554 24.3213 65.748 24.586C65.8406 24.8506 65.9324 25.1134 66.0234 25.3742C65.9868 25.539 65.9224 25.6583 65.8303 25.732C65.7381 25.8057 65.6211 25.8722 65.4791 25.9316C65.3521 25.9847 65.2217 26.0349 65.0879 26.0821C64.954 26.1293 64.8204 26.1719 64.6872 26.2101C64.4313 26.2907 64.1763 26.3841 63.9223 26.4904C63.7654 26.556 63.5556 26.6525 63.2928 26.7801C63.0301 26.9075 62.7622 27.0437 62.4893 27.1887C62.2163 27.3337 61.9542 27.4784 61.703 27.623C61.4517 27.7677 61.2592 27.8899 61.1254 27.9899C61.0376 28.0529 60.9636 28.1279 60.9032 28.2147C60.8429 28.3014 60.7851 28.3893 60.7301 28.4783C60.675 28.5673 60.6131 28.6503 60.5443 28.7275C60.4756 28.8046 60.3926 28.8635 60.2955 28.9041C60.161 28.9603 60.0212 28.9352 59.876 28.8289C59.7309 28.7225 59.5932 28.5867 59.463 28.4213C59.3328 28.256 59.2201 28.0855 59.1251 27.9098C59.03 27.7341 58.967 27.6088 58.9358 27.534C58.9265 27.5115 58.9091 27.4594 58.8839 27.3776C58.8586 27.2959 58.8302 27.2066 58.7988 27.1099C58.7672 27.0131 58.7373 26.9202 58.709 26.8308C58.6806 26.7416 58.6571 26.6745 58.6383 26.6296C58.5729 26.4723 58.5918 26.3281 58.6951 26.197C58.7984 26.0658 58.9436 25.9458 59.1307 25.8367C59.3177 25.7277 59.5248 25.6192 59.7517 25.5111C59.9786 25.403 60.1828 25.293 60.3646 25.1818ZM68.0754 32.1437C68.0871 32.1666 68.1003 32.1995 68.1151 32.2423C68.1298 32.2852 68.1433 32.3324 68.1552 32.3839C68.1672 32.4354 68.1783 32.481 68.1884 32.5205C68.1986 32.56 68.2049 32.5877 68.2074 32.6038C68.2479 32.8685 68.2245 33.104 68.1373 33.3103C68.0501 33.5167 67.9276 33.7058 67.7696 33.8779C67.6117 34.05 67.4329 34.2067 67.2336 34.3483C67.0341 34.4898 66.8469 34.6314 66.6721 34.7733C66.4153 34.9688 66.1504 35.1511 65.8773 35.3204C65.6043 35.4896 65.3264 35.6535 65.0435 35.8119C64.7607 35.9704 64.4754 36.1271 64.1879 36.2821C63.9004 36.4372 63.6185 36.6016 63.342 36.7755C63.2078 36.8618 63.0551 36.9613 62.884 37.0738C62.7129 37.1863 62.5523 37.3013 62.4024 37.4187C62.2525 37.5362 62.1219 37.6465 62.0109 37.7498C61.8997 37.8531 61.833 37.9393 61.8108 38.0084C61.5997 37.967 61.4285 37.8784 61.2971 37.7426C61.1658 37.6068 61.06 37.4506 60.9797 37.2741C60.8995 37.0976 60.841 36.9158 60.8041 36.7285C60.7673 36.5412 60.7384 36.3794 60.7176 36.2431C60.6685 35.9223 60.6801 35.6639 60.7526 35.468C60.825 35.2722 60.9126 35.1089 61.0154 34.9781C61.1182 34.8473 61.2132 34.7322 61.3004 34.6326C61.3875 34.533 61.4212 34.419 61.4016 34.2907C61.3733 34.1063 61.3228 33.9498 61.2499 33.8215C61.177 33.6931 61.0914 33.5749 60.9929 33.4669C60.8944 33.3589 60.7937 33.2492 60.6907 33.1378C60.5876 33.0264 60.4925 32.8995 60.4051 32.7569C60.3165 32.6063 60.2495 32.4361 60.2041 32.246C60.1586 32.056 60.1223 31.8727 60.0954 31.6963C60.0732 31.5519 60.0589 31.4043 60.0521 31.2534C60.0454 31.1026 60.0608 30.9627 60.0985 30.8338C60.136 30.7048 60.1967 30.5929 60.2805 30.4979C60.3642 30.403 60.4901 30.3426 60.6581 30.3168C61.0102 30.2626 61.3613 30.2825 61.7115 30.3764C62.0616 30.4703 62.402 30.6068 62.7323 30.7858C63.0628 30.9649 63.3803 31.1665 63.6848 31.3906C63.9894 31.6147 64.2761 31.8291 64.545 32.0341C64.6189 32.0885 64.6834 32.136 64.7388 32.1767C64.7942 32.2174 64.8779 32.2292 64.9899 32.212C65.1179 32.1923 65.2614 32.1395 65.4203 32.0535C65.579 31.9675 65.7303 31.8724 65.8741 31.7682C66.0179 31.664 66.1414 31.5608 66.2445 31.4588C66.3476 31.3568 66.4075 31.2798 66.4241 31.228C66.474 31.1792 66.5134 31.1157 66.5424 31.0374C66.5714 30.959 66.6043 30.8801 66.6413 30.8005C66.6783 30.721 66.7185 30.6491 66.7619 30.5849C66.8053 30.5207 66.8671 30.4825 66.947 30.4702C67.0351 30.4567 67.108 30.4783 67.1658 30.5351C67.2237 30.5919 67.274 30.654 67.3171 30.7212L68.0754 32.1437ZM62.5814 31.9665C62.4053 31.9935 62.2701 32.0595 62.1756 32.1644C62.0811 32.2692 62.0142 32.3944 61.9751 32.54C61.936 32.6856 61.9187 32.8401 61.9232 33.0036C61.9278 33.1671 61.9405 33.317 61.9613 33.4533C61.9834 33.5978 62.0355 33.7108 62.1176 33.7926C62.1997 33.8744 62.3008 33.906 62.4209 33.8876C62.4609 33.8815 62.5094 33.8637 62.5663 33.8345C62.6233 33.8052 62.6739 33.7748 62.7183 33.7434C62.7626 33.7119 62.8382 33.6572 62.945 33.5793C63.0518 33.5013 63.1666 33.422 63.2895 33.3415C63.4123 33.2611 63.5271 33.1818 63.6339 33.1038C63.7407 33.0259 63.8163 32.9711 63.8606 32.9397C63.9413 32.878 63.9898 32.807 64.0062 32.7265C64.0225 32.646 64.0257 32.5736 64.016 32.5095C63.9951 32.3731 63.9276 32.2665 63.8135 32.1897C63.6993 32.1128 63.5676 32.055 63.4184 32.0165C63.2692 31.9778 63.1183 31.9559 62.966 31.9506C62.8137 31.9453 62.6854 31.9506 62.5814 31.9665ZM31.1618 7.4412C31.1642 7.0193 31.1787 6.60143 31.2053 6.18769C31.2228 5.96051 31.2362 5.73747 31.2455 5.51845C31.2549 5.29944 31.2602 5.0763 31.2615 4.84903C31.2624 4.6949 31.2551 4.54269 31.2398 4.39249C31.2244 4.2423 31.2092 4.09009 31.1938 3.93577C31.1785 3.77339 31.1613 3.60899 31.142 3.44248C31.1227 3.27597 31.1134 3.11167 31.1144 2.94938C31.1158 2.69783 31.1837 2.51153 31.3179 2.39057C31.4522 2.2696 31.6366 2.20976 31.8714 2.21114C32.1547 2.21279 32.436 2.22241 32.7152 2.24028C32.9944 2.25806 33.2716 2.27593 33.5468 2.2937C33.6838 2.39185 33.7683 2.49778 33.8 2.6116C33.8317 2.72541 33.8472 2.85939 33.8462 3.01352C33.8455 3.15144 33.8407 3.29137 33.8317 3.43341C33.8228 3.57536 33.8099 3.71529 33.7929 3.85311C33.7672 4.12079 33.7534 4.39249 33.7519 4.66842C33.7509 4.83877 33.7577 5.07016 33.7723 5.3623C33.7868 5.65453 33.8074 5.95492 33.834 6.26338C33.8606 6.57192 33.8913 6.8703 33.926 7.15859C33.9609 7.44689 33.998 7.67222 34.0376 7.83479C34.0613 7.94045 34.1012 8.03804 34.1573 8.12757C34.2135 8.2172 34.2717 8.30471 34.332 8.3903C34.3922 8.47589 34.4443 8.56542 34.4883 8.65898C34.5322 8.75255 34.554 8.85207 34.5534 8.95754C34.5525 9.10361 34.4749 9.22283 34.3206 9.3153C34.1663 9.40776 33.9878 9.4818 33.7851 9.53743C33.5824 9.59314 33.3818 9.63053 33.1834 9.64968C32.9849 9.66884 32.8452 9.67818 32.7643 9.67772C32.74 9.67754 32.6854 9.67323 32.6005 9.66462C32.5155 9.65601 32.4225 9.64739 32.3213 9.63869C32.2202 9.62998 32.1231 9.62127 32.03 9.61266C31.9369 9.60405 31.8662 9.59956 31.8176 9.59928C31.6475 9.59828 31.5225 9.5246 31.4424 9.37807C31.3623 9.23154 31.3086 9.05065 31.2816 8.83548C31.2544 8.62031 31.2355 8.38691 31.2248 8.13527C31.2141 7.88363 31.1931 7.65234 31.1618 7.4412ZM31.6483 0.87093C31.6575 0.684354 31.6866 0.532327 31.7359 0.414938C31.7852 0.29755 31.8545 0.20866 31.9439 0.148363C32.0333 0.087973 32.1408 0.0480188 32.2663 0.0284998C32.3919 0.00888925 32.5357 -0.0003662 32.6976 0.000550182C32.908 0.00174148 33.0674 0.0898974 33.1757 0.264926C33.284 0.440047 33.3416 0.620941 33.3487 0.807608C33.3566 0.840139 33.3604 0.888799 33.3601 0.953771C33.3588 1.17288 33.2748 1.35496 33.108 1.50012C32.9413 1.64527 32.7526 1.71721 32.5421 1.71602C32.4207 1.71528 32.2954 1.6822 32.1662 1.6165C31.9885 1.55061 31.8575 1.45045 31.7733 1.31602C31.689 1.18167 31.6474 1.03322 31.6483 0.87093ZM37.552 68.0543C37.552 67.5109 37.5676 66.9729 37.5989 66.4399C37.6198 66.1473 37.6354 65.86 37.6458 65.5778C37.6562 65.2957 37.6614 65.0084 37.6614 64.7158C37.6614 64.5173 37.651 64.3214 37.6302 64.128C37.6093 63.9348 37.5885 63.7388 37.5676 63.5403C37.5468 63.3312 37.5233 63.1196 37.4972 62.9055C37.4712 62.6913 37.4581 62.4797 37.4581 62.2707C37.4581 61.9468 37.5441 61.7065 37.7161 61.5497C37.8881 61.393 38.1253 61.3146 38.4275 61.3146C38.7924 61.3146 39.1546 61.325 39.5142 61.3459C39.8739 61.3668 40.2309 61.3877 40.5853 61.4086C40.7625 61.5339 40.872 61.6698 40.9137 61.8161C40.9554 61.9623 40.9762 62.1348 40.9762 62.3333C40.9762 62.511 40.971 62.6912 40.9606 62.8741C40.9502 63.0569 40.9345 63.2371 40.9137 63.4148C40.8824 63.7596 40.8668 64.1097 40.8668 64.4649C40.8668 64.6843 40.8772 64.9821 40.898 65.3583C40.9189 65.7345 40.9476 66.1211 40.9841 66.5181C41.0205 66.9152 41.0622 67.2992 41.1091 67.6701C41.156 68.0411 41.2056 68.331 41.2577 68.54C41.289 68.6758 41.3411 68.8012 41.414 68.9161C41.487 69.031 41.5626 69.1434 41.6407 69.2531C41.7189 69.3628 41.7866 69.4778 41.844 69.5979C41.9013 69.718 41.93 69.8461 41.93 69.9819C41.93 70.1699 41.831 70.3241 41.6329 70.4443C41.4349 70.5644 41.2055 70.6611 40.9449 70.7342C40.6842 70.8074 40.4262 70.857 40.1709 70.8831C39.9155 70.9093 39.7357 70.9224 39.6314 70.9224C39.6002 70.9224 39.5298 70.9171 39.4203 70.9067C39.3109 70.8962 39.191 70.8858 39.0607 70.8754C38.9304 70.8649 38.8053 70.8545 38.6854 70.844C38.5656 70.8336 38.4743 70.8283 38.4118 70.8283C38.1929 70.8283 38.0313 70.7343 37.9271 70.5462C37.8229 70.3581 37.7525 70.1256 37.716 69.8487C37.6795 69.5718 37.6535 69.2714 37.6379 68.9475C37.6222 68.6235 37.5937 68.326 37.552 68.0543ZM46.277 65.8287C46.3603 66.1317 46.5037 66.4739 46.7069 66.8553C46.9101 67.2367 47.1447 67.6129 47.4106 67.9838C47.6764 68.3548 47.9605 68.6944 48.2628 69.0025C48.5651 69.3108 48.8569 69.5381 49.1384 69.6843C49.2635 69.6843 49.3703 69.619 49.4589 69.4884C49.5475 69.3578 49.6179 69.1985 49.67 69.0103C49.7221 68.8223 49.7586 68.6289 49.7794 68.4305C49.8003 68.232 49.8159 68.0699 49.8263 67.9446C49.8367 67.8297 49.8836 67.7564 49.967 67.7251C50.0504 67.6938 50.1025 67.6781 50.1233 67.6781L52.2811 67.3019C52.3541 67.3019 52.4062 67.328 52.4374 67.3803C52.4687 67.4325 52.4843 67.4952 52.4843 67.5683C52.4843 67.6623 52.4635 67.7302 52.4218 67.7721C51.7651 68.3886 51.1449 69.0208 50.5612 69.6686C49.9774 70.3165 49.3624 70.9538 48.7161 71.5807C48.5284 71.727 48.3122 71.8681 48.0672 72.0039C47.8222 72.1397 47.5799 72.2077 47.3402 72.2077C47.2464 72.2077 47.1577 72.2025 47.0743 72.192C46.991 72.1816 46.9076 72.1346 46.8241 72.051C46.4176 71.7061 46.0241 71.3587 45.6436 71.0087C45.2631 70.6586 44.9243 70.2877 44.6273 69.8958C44.3302 69.504 44.0801 69.0782 43.8768 68.6185C43.6734 68.1587 43.5458 67.6468 43.4937 67.0825C43.5667 66.4764 43.7465 65.8208 44.0332 65.1154C44.3199 64.4101 44.6769 63.7231 45.1042 63.0544C45.5316 62.3856 46.0163 61.777 46.5584 61.2284C47.1004 60.6799 47.6633 60.2645 48.2471 59.9824C48.2575 59.972 48.3227 60.0372 48.4425 60.1783C48.5624 60.3194 48.7136 60.4996 48.8959 60.7191C49.0783 60.9385 49.2816 61.1815 49.5057 61.4479C49.7299 61.7144 49.9487 61.9703 50.1625 62.2159C50.3761 62.4615 50.5717 62.6809 50.7488 62.8742C50.9261 63.0675 51.0616 63.2007 51.1554 63.2739C51.2075 63.3157 51.257 63.3549 51.3039 63.3914C51.3508 63.428 51.4004 63.4725 51.4525 63.5247C50.8792 63.6396 50.3085 63.7311 49.7403 63.799C49.1722 63.8669 48.6015 63.9374 48.0281 64.0106C47.8718 63.7075 47.6763 63.4359 47.4417 63.1955C47.2072 62.9552 46.9492 62.835 46.6678 62.835C46.5531 62.835 46.454 62.882 46.3707 62.9761C46.2873 63.0701 46.2196 63.1954 46.1674 63.3522C46.1152 63.5089 46.0736 63.684 46.0423 63.8773C46.011 64.0706 45.9954 64.2613 45.9954 64.4494C45.9954 64.6898 46.0267 64.9248 46.0892 65.1547C46.1517 65.3846 46.2144 65.6092 46.277 65.8287ZM59.6927 68.0386C59.6927 67.7356 59.6979 67.4352 59.7083 67.1373C59.7187 66.8395 59.7343 66.5391 59.7552 66.2361C59.3695 66.0898 58.9812 65.9592 58.5903 65.8442C58.1994 65.7293 57.832 65.5673 57.488 65.3584C57.4984 65.6301 57.514 65.92 57.5349 66.2283C57.5557 66.5366 57.5818 66.8343 57.613 67.1217C57.6443 67.409 57.6782 67.6781 57.7147 67.9288C57.7512 68.1796 57.7903 68.3833 57.832 68.54C57.8633 68.6758 57.918 68.8013 57.9962 68.9162C58.0744 69.0311 58.1525 69.1435 58.2308 69.2532C58.3089 69.3629 58.3767 69.4779 58.434 69.598C58.4913 69.7181 58.52 69.8462 58.52 69.982C58.52 70.17 58.421 70.3242 58.2229 70.4444C58.0249 70.5645 57.7955 70.6612 57.5349 70.7343C57.2742 70.8075 57.0163 70.8571 56.7609 70.8832C56.5055 70.9094 56.3258 70.9225 56.2215 70.9225C56.1902 70.9225 56.1198 70.9172 56.0104 70.9068C55.901 70.8963 55.781 70.8859 55.6507 70.8754C55.5205 70.865 55.3953 70.8546 55.2755 70.8441C55.1556 70.8337 55.0644 70.8284 55.0018 70.8284C54.783 70.8284 54.6214 70.7344 54.5171 70.5463C54.4129 70.3582 54.3425 70.1257 54.306 69.8488C54.2696 69.5719 54.2435 69.2715 54.2279 68.9476C54.2123 68.6236 54.1835 68.3259 54.1419 68.0542C54.1419 67.5109 54.1575 66.9728 54.1888 66.4398C54.2096 66.1472 54.2252 65.8599 54.2357 65.5778C54.2461 65.2956 54.2513 65.0083 54.2513 64.7157C54.2513 64.5172 54.2409 64.3213 54.22 64.1279C54.1992 63.9347 54.1783 63.7388 54.1575 63.5402C54.1367 63.3312 54.1132 63.1196 54.0871 62.9054C54.061 62.6912 54.048 62.4796 54.048 62.2706C54.048 61.9467 54.134 61.7064 54.306 61.5496C54.4779 61.3929 54.7151 61.3145 55.0174 61.3145C55.3822 61.3145 55.7444 61.3249 56.1041 61.3458C56.4637 61.3667 56.8207 61.3876 57.1752 61.4085C57.3523 61.5338 57.4618 61.6697 57.5035 61.816C57.5452 61.9623 57.5661 62.1347 57.5661 62.3332C57.5661 62.5109 57.5608 62.6911 57.5504 62.874C57.54 63.0568 57.5244 63.237 57.5035 63.4147C57.4723 63.6655 57.4566 63.9163 57.4566 64.1671C57.7694 64.3865 58.129 64.5825 58.5356 64.7548C58.9421 64.9272 59.3591 65.0866 59.7864 65.2329C59.7969 65.1493 59.8021 65.0631 59.8021 64.9743C59.8021 64.8855 59.8021 64.7941 59.8021 64.7C59.8021 64.5015 59.7917 64.3055 59.7708 64.1123C59.75 63.919 59.7291 63.7231 59.7083 63.5245C59.6874 63.3156 59.6639 63.104 59.6379 62.8897C59.6118 62.6755 59.5988 62.4639 59.5988 62.255C59.5988 61.931 59.6848 61.6907 59.8567 61.5339C60.0287 61.3772 60.2659 61.2989 60.5682 61.2989C60.933 61.2989 61.2952 61.3093 61.6549 61.3302C62.0145 61.3511 62.3715 61.372 62.7259 61.3929C62.9031 61.5183 63.0126 61.6541 63.0543 61.8004C63.096 61.9467 63.1169 62.1191 63.1169 62.3176C63.1169 62.4952 63.1116 62.6755 63.1012 62.8584C63.0908 63.0413 63.0752 63.2215 63.0543 63.3991C63.0231 63.744 63.0074 64.094 63.0074 64.4492C63.0074 64.6687 63.0178 64.9664 63.0387 65.3426C63.0595 65.7188 63.0882 66.1054 63.1247 66.5025C63.1612 66.8995 63.2029 67.2835 63.2498 67.6545C63.2967 68.0254 63.3462 68.3154 63.3983 68.5244C63.4296 68.6602 63.4817 68.7855 63.5547 68.9006C63.6276 69.0155 63.7032 69.1278 63.7814 69.2375C63.8595 69.3472 63.9273 69.4622 63.9847 69.5823C64.042 69.7025 64.0707 69.8305 64.0707 69.9663C64.0707 70.1543 63.9717 70.3085 63.7736 70.4287C63.5756 70.5489 63.3462 70.6455 63.0856 70.7187C62.825 70.7918 62.567 70.8415 62.3116 70.8676C62.0562 70.8937 61.8764 70.9068 61.7722 70.9068C61.7409 70.9068 61.6705 70.9016 61.5611 70.8911C61.4517 70.8807 61.3317 70.8702 61.2014 70.8598C61.0712 70.8493 60.946 70.8389 60.8262 70.8284C60.7063 70.818 60.6151 70.8128 60.5525 70.8128C60.3336 70.8128 60.1721 70.7187 60.0678 70.5306C59.9636 70.3426 59.8932 70.1101 59.8567 69.8332C59.8203 69.5562 59.7942 69.2558 59.7786 68.9319C59.763 68.608 59.7343 68.3102 59.6927 68.0386ZM75.5163 62.3021C75.6936 63.6709 75.816 65.0083 75.8837 66.3144C75.9515 67.6205 75.9854 68.9267 75.9854 70.2328C75.9854 70.379 75.8864 70.494 75.6883 70.5776C75.4903 70.6612 75.2557 70.7213 74.9846 70.7579C74.7136 70.7944 74.4347 70.8153 74.148 70.8206C73.8614 70.8258 73.6346 70.8283 73.4679 70.8283C73.2907 70.8283 73.1135 70.8152 72.9363 70.7891C72.759 70.763 72.5949 70.7133 72.4437 70.6402C72.2926 70.5671 72.1674 70.4652 72.0684 70.3346C71.9694 70.204 71.9147 70.0342 71.9043 69.8252C71.9772 69.4803 72.0345 69.1303 72.0762 68.7751C72.1179 68.4198 72.1492 68.0698 72.17 67.7249L72.0137 67.5996C72.0137 67.6936 72.0085 67.785 71.998 67.8738C71.9876 67.9626 71.9564 68.0436 71.9043 68.1168C71.6436 68.4616 71.3439 68.8273 71.0051 69.214C70.6664 69.6006 70.3198 70.0002 69.9653 70.4129C69.6109 70.8257 69.2643 71.2489 68.9255 71.6825C68.5867 72.1161 68.2819 72.5602 68.0108 73.0147C67.7397 73.4693 67.5182 73.9317 67.3463 74.4019C67.1743 74.8721 67.0831 75.3423 67.0727 75.8125C67.0727 75.896 67.057 75.9483 67.0258 75.9691C66.9945 75.99 66.9632 76.0005 66.932 76.0005H66.8851C66.8746 76.0005 66.8694 75.9953 66.8694 75.9848C66.6297 75.8281 66.429 75.5956 66.2674 75.2874C66.1059 74.9791 65.9782 74.6578 65.8844 74.3234C65.7906 73.989 65.7254 73.6755 65.6889 73.383C65.6525 73.0904 65.6343 72.8867 65.6343 72.7718C65.6343 72.124 65.6889 71.5676 65.7985 71.1026C65.9079 70.6376 66.0512 70.2222 66.2284 69.8566C66.4264 69.4595 66.6454 69.1226 66.8852 68.8457C67.1249 68.5687 67.3881 68.3285 67.6747 68.1246C67.9614 67.9208 68.2689 67.7407 68.5973 67.5839C68.9256 67.4272 69.2774 67.2756 69.6527 67.1294C69.7673 67.0876 69.8742 67.0353 69.9732 66.9727C70.0722 66.91 70.1791 66.8473 70.2937 66.7846C70.2937 66.7846 70.3041 66.7794 70.325 66.769C70.0435 66.654 69.7126 66.526 69.3321 66.385C68.9516 66.244 68.5919 66.0742 68.2532 65.8756C67.9144 65.6771 67.6251 65.4419 67.3854 65.1702C67.1456 64.8985 67.0258 64.5747 67.0258 64.1985C67.0258 63.8955 67.1066 63.6055 67.2681 63.3287C67.4296 63.0517 67.6303 62.8036 67.8701 62.5842C68.1098 62.3647 68.3704 62.174 68.6519 62.0121C68.9334 61.8502 69.1939 61.7274 69.4337 61.6438C69.5692 61.602 69.7647 61.5524 70.0201 61.4949C70.2755 61.4375 70.5309 61.3852 70.7863 61.3382C71.0417 61.2912 71.2632 61.252 71.4508 61.2206C71.6384 61.1893 71.7271 61.1736 71.7167 61.1736C71.8105 60.9542 71.9538 60.7922 72.1466 60.6878C72.3394 60.5833 72.5531 60.5127 72.7877 60.4762C73.0223 60.4396 73.2672 60.4213 73.5226 60.4213C73.7781 60.4213 74.0152 60.4108 74.2341 60.3899C74.3904 60.3899 74.539 60.4369 74.6797 60.531C74.8204 60.625 74.9534 60.7452 75.0784 60.8915C75.2556 61.3199 75.4017 61.7901 75.5163 62.3021ZM72.0139 66.8004C72.0347 66.8004 72.0555 66.7952 72.0764 66.7847C72.0972 66.7743 72.1155 66.7403 72.1311 66.6828C72.1467 66.6254 72.1623 66.5418 72.178 66.432C72.1936 66.3223 72.2066 66.163 72.2171 65.9539C72.1963 65.724 72.1754 65.4759 72.1546 65.2095C72.1337 64.9431 72.1102 64.6791 72.0842 64.418C72.0581 64.1568 72.0321 63.9086 72.006 63.6735C71.9799 63.4384 71.9512 63.2372 71.92 63.0701C71.8887 62.9343 71.8366 62.814 71.7636 62.7096C71.6907 62.6051 71.5656 62.5529 71.3884 62.5529C71.0548 62.6155 70.8307 62.7645 70.716 62.9995C70.6013 63.2347 70.544 63.4933 70.544 63.7753C70.544 63.9216 70.5545 64.0757 70.5753 64.2377C70.5961 64.3997 70.6222 64.5642 70.6535 64.7315C70.8306 65.4211 71.0548 65.9383 71.3258 66.2832C71.5969 66.628 71.8262 66.8004 72.0139 66.8004ZM9.36197 47.7003C8.79371 47.6946 8.23112 47.6725 7.6741 47.634C7.3683 47.609 7.06799 47.5895 6.77298 47.5756C6.47806 47.5617 6.17757 47.5532 5.87159 47.55C5.66397 47.5479 5.45892 47.5568 5.25652 47.5767C5.05411 47.5966 3.94483 47.3306 3.88532 47.5312C3.77287 47.9101 3.15561 49.2108 2.65811 48.8161C2.26226 48.5021 0.251862 47.2955 0.238423 47.2804C0.0763366 47.098 -0.00310676 46.8479 9.29109e-05 46.5302C0.00393252 46.1468 0.0187424 45.7662 0.0443398 45.3886C0.0699372 45.0109 0.095626 44.636 0.121223 44.2637C0.254238 44.0788 0.397492 43.9653 0.550894 43.9229C0.704295 43.8807 0.88494 43.8606 1.09255 43.8626C1.27832 43.8644 1.46682 43.8719 1.65789 43.8848C1.84905 43.8976 2.037 43.9192 2.22295 43.9398C2.58287 43.9795 5.2716 44.1753 5.64322 44.179C5.87268 44.1812 6.18424 44.1735 6.57789 44.1555C6.97154 44.1375 7.37616 44.1115 7.79185 44.0774C8.20753 44.0433 8.60959 44.0036 8.99803 43.9581C9.38647 43.9127 9.69026 43.8638 9.90939 43.8112C10.0518 43.7798 10.1835 43.7264 10.3045 43.6508C10.4255 43.5753 10.5437 43.4972 10.6594 43.4162C10.7749 43.3352 10.8959 43.2651 11.0221 43.2062C11.1484 43.1472 11.2826 43.1184 11.4247 43.1199C11.6214 43.1219 11.7815 43.2276 11.9051 43.437C12.0287 43.6464 12.1273 43.8884 12.2011 44.163C12.2749 44.4376 12.324 44.7093 12.3486 44.9779C12.3732 45.2466 12.385 45.4357 12.3839 45.5453C12.3836 45.5781 12.3773 45.652 12.3653 45.767C12.3532 45.8819 12.341 46.0078 12.3287 46.1446C12.3164 46.2814 12.3041 46.4127 12.292 46.5386C12.2798 46.6645 12.2733 46.7603 12.2727 46.826C12.2704 47.056 12.1703 47.2248 11.9724 47.3324C11.7746 47.44 11.5307 47.5115 11.2407 47.5468C10.9507 47.5822 10.6363 47.6065 10.2974 47.6194C9.95839 47.6324 9.64656 47.6594 9.36197 47.7003ZM1.23517 35.7358C2.00455 35.0291 2.75958 34.4148 3.50035 33.8929C4.24112 33.3711 4.98756 32.8879 5.73967 32.4436C6.24842 32.2028 6.80982 32.0341 7.42407 31.9374C8.03831 31.8408 8.65622 31.813 9.27777 31.8541C9.39561 31.8948 9.5098 31.949 9.62032 32.0167C9.73085 32.0845 9.83817 32.1601 9.94212 32.2438C10.5597 32.8446 11.1489 33.4627 11.7094 34.098C12.27 34.7334 12.8242 35.3821 13.3721 36.0441C13.5118 36.251 13.644 36.4876 13.7689 36.7538C13.8938 37.02 13.9479 37.2789 13.9314 37.5303C13.9249 37.6287 13.9134 37.7212 13.8967 37.808C13.8801 37.8947 13.8252 37.9789 13.7323 38.0606C13.3444 38.4631 12.9546 38.8518 12.563 39.2266C12.1715 39.6015 11.7609 39.9312 11.3315 40.2157C10.9021 40.5001 10.4404 40.7332 9.9466 40.9146C9.45275 41.0961 8.90963 41.1947 8.31714 41.2103C7.68964 41.092 7.0178 40.8582 6.30153 40.5089C5.58517 40.1596 4.89285 39.7379 4.22439 39.2435C3.55594 38.7492 2.95421 38.1989 2.41905 37.5926C1.88388 36.9864 1.48931 36.3674 1.23517 35.7358ZM11.422 35.4706C11.4285 35.3722 11.3907 35.2819 11.3084 35.1996C11.2262 35.1173 11.1214 35.0445 10.9942 34.9812C10.8669 34.9179 10.7253 34.8647 10.5693 34.8214C10.4134 34.7782 10.2598 34.7406 10.1086 34.7086C9.68331 34.6805 9.25373 34.718 8.81976 34.821C8.3858 34.924 7.95247 35.0601 7.51969 35.2291C7.08691 35.3981 6.66355 35.5897 6.2497 35.8039C5.83584 36.018 5.44146 36.228 5.06646 36.4338C4.80555 36.5702 4.58376 36.7367 4.40111 36.9332C4.21836 37.1297 4.11917 37.3482 4.10335 37.5887C4.0954 37.7089 4.13764 37.8161 4.23006 37.91C4.32249 38.0039 4.44864 38.0836 4.60863 38.1491C4.76861 38.2145 4.94843 38.2703 5.148 38.3165C5.34757 38.3626 5.54549 38.3922 5.74177 38.4052C5.99262 38.4218 6.2401 38.4052 6.48437 38.3555C6.72855 38.3058 6.96734 38.2557 7.20064 38.2052C7.52262 38.1387 7.88966 38.012 8.30178 37.8251C8.71381 37.6383 9.12264 37.4183 9.52808 37.1651C9.93352 36.912 10.3075 36.6376 10.6502 36.3418C10.9927 36.0461 11.25 35.7557 11.422 35.4706ZM3.19154 22.658C4.08059 22.1103 4.9381 21.6505 5.76408 21.2788C6.59014 20.9072 7.41438 20.5745 8.23678 20.2812C8.78183 20.1413 9.36499 20.0823 9.98636 20.1041C10.6077 20.1259 11.2197 20.216 11.8222 20.3745C11.9302 20.4369 12.0321 20.5117 12.1279 20.5992C12.2236 20.6866 12.3146 20.7813 12.4009 20.8833C12.8938 21.5905 13.3553 22.3093 13.7857 23.0397C14.216 23.77 14.6375 24.5123 15.0503 25.2664C15.1484 25.496 15.2336 25.7534 15.3058 26.0386C15.3781 26.3238 15.3823 26.5882 15.3185 26.8319C15.2935 26.9273 15.2646 27.0159 15.2319 27.098C15.1992 27.18 15.1294 27.2522 15.0227 27.3148C14.5656 27.6363 14.1095 27.9439 13.6542 28.2376C13.1988 28.5313 12.7334 28.777 12.258 28.9747C11.7826 29.1725 11.2852 29.3135 10.7661 29.3978C10.2469 29.4821 9.69492 29.4758 9.1102 29.3787C8.51653 29.1432 7.901 28.786 7.26372 28.307C6.62643 27.828 6.02636 27.2823 5.46349 26.67C4.90062 26.0577 4.41381 25.403 4.00298 24.7061C3.59214 24.0092 3.32172 23.3265 3.19154 22.658ZM13.2439 24.3328C13.2689 24.2374 13.2488 24.1415 13.1836 24.0451C13.1184 23.9487 13.0293 23.8574 12.9164 23.771C12.8034 23.6847 12.6744 23.6054 12.5295 23.5334C12.3845 23.4613 12.2408 23.3952 12.0983 23.3351C11.686 23.2267 11.2572 23.1819 10.8116 23.2007C10.366 23.2195 9.91487 23.2707 9.45796 23.3545C9.00105 23.4382 8.54916 23.5459 8.10231 23.6776C7.65545 23.8093 7.22852 23.9405 6.82143 24.0712C6.53949 24.1556 6.29019 24.277 6.07371 24.4352C5.85714 24.5935 5.71837 24.7891 5.65739 25.0223C5.62686 25.1388 5.64807 25.252 5.72102 25.3618C5.79397 25.4716 5.90285 25.5738 6.04748 25.6685C6.19219 25.7632 6.35812 25.8521 6.54544 25.9353C6.73266 26.0186 6.92144 26.0852 7.11169 26.1352C7.35486 26.1992 7.60096 26.2299 7.85017 26.2275C8.09938 26.225 8.34329 26.2213 8.58189 26.216C8.91063 26.2118 9.29496 26.1572 9.73487 26.052C10.1748 25.9468 10.6177 25.8085 11.0637 25.637C11.5098 25.4654 11.9288 25.267 12.3211 25.0417C12.7134 24.8164 13.021 24.5799 13.2439 24.3328ZM12.0662 7.69623C13.1095 7.71795 14.0788 7.79658 14.9741 7.93211C15.8694 8.06764 16.7421 8.23516 17.5921 8.43456C18.1259 8.61262 18.6482 8.87937 19.1589 9.23484C19.6697 9.5903 20.1355 9.998 20.5567 10.4581C20.6139 10.5691 20.659 10.6874 20.6923 10.8128C20.7256 10.9383 20.751 11.0673 20.7685 11.1999C20.8012 12.062 20.8013 12.9168 20.7687 13.7644C20.7363 14.612 20.69 15.4649 20.6299 16.3229C20.5884 16.5692 20.5211 16.8318 20.4279 17.1109C20.3347 17.3898 20.1955 17.6145 20.0103 17.7849C19.9378 17.8515 19.8657 17.9104 19.7939 17.9616C19.7221 18.0129 19.6244 18.0358 19.5009 18.0305C18.9431 18.0529 18.3934 18.0641 17.852 18.0641C17.3105 18.064 16.7865 18.0182 16.2799 17.9265C15.7734 17.8349 15.279 17.6837 14.7969 17.473C14.3148 17.2623 13.8541 16.9575 13.4149 16.5587C13.0427 16.0386 12.718 15.4044 12.4407 14.6559C12.1634 13.9073 11.9534 13.123 11.8107 12.3027C11.668 11.4824 11.6121 10.6679 11.6429 9.85898C11.6737 9.05009 11.8147 8.3289 12.0662 7.69623ZM19.6151 14.5578C19.6876 14.4912 19.7224 14.3997 19.7197 14.2832C19.7169 14.1668 19.6913 14.0416 19.643 13.9077C19.5945 13.7739 19.5289 13.6373 19.4459 13.498C19.363 13.3587 19.2778 13.2252 19.1905 13.0974C18.9023 12.7826 18.5658 12.5122 18.181 12.2863C17.7962 12.0603 17.3891 11.8587 16.9597 11.6812C16.5303 11.5038 16.0922 11.3492 15.6454 11.2175C15.1985 11.0858 14.7687 10.9646 14.3557 10.8537C14.0731 10.7718 13.798 10.7386 13.5304 10.7542C13.2628 10.7698 13.0406 10.859 12.8634 11.022C12.7748 11.1034 12.7316 11.2101 12.7337 11.3421C12.7358 11.4739 12.7721 11.619 12.8427 11.7771C12.9132 11.9351 13.0048 12.1 13.1173 12.2715C13.2298 12.4431 13.3526 12.6015 13.4855 12.7468C13.6555 12.9324 13.8459 13.0919 14.0567 13.2249C14.2676 13.3581 14.4748 13.4872 14.6782 13.6123C14.9568 13.7871 15.3096 13.9497 15.7363 14.0999C16.163 14.2501 16.6101 14.3741 17.0778 14.4718C17.5454 14.5695 18.005 14.6299 18.4564 14.6533C18.908 14.6767 19.2942 14.6448 19.6151 14.5578ZM8.99054 64.7729C8.95406 64.9007 8.69306 65.5275 8.41981 66.1666C7.42407 68.4672 7.27231 69.094 7.27231 70.8772C7.27834 72.2952 7.36336 72.9039 7.64878 73.5124C8.47447 75.2834 10.3567 75.0339 10.8666 73.0864C11.067 72.3196 11.1399 71.5162 11.1034 70.4329C11.0549 68.9601 10.8484 68.1933 10.047 66.4648C9.79804 65.9293 9.49444 65.278 9.37303 65.0163C9.25163 64.7607 9.13013 64.5476 9.11194 64.5476C9.08762 64.5476 9.03305 64.6512 8.99054 64.7729ZM8.1769 64.5234C6.42833 64.7363 5.23832 65.2659 4.09686 66.337C3.59899 66.7995 2.94324 67.6029 2.79752 67.9254C2.43934 68.7044 2.97963 69.4104 3.93286 69.4166C5.18356 69.4226 6.28252 68.5219 7.70326 66.3431C8.05541 65.8076 8.47438 65.1746 8.6383 64.9312C8.93577 64.4929 8.97225 64.4199 8.89326 64.4321C8.86291 64.4381 8.54724 64.4747 8.1769 64.5234ZM10.472 64.3955C9.99843 64.4442 9.53695 64.4868 9.45193 64.499C9.30621 64.5172 9.33052 64.5476 9.73734 64.8946C9.98024 65.1015 10.4963 65.5458 10.8788 65.8867C12.3481 67.1891 13.6535 67.9498 15.4932 68.5707C16.3675 68.8688 16.4768 68.8871 17.0415 68.8932C17.7458 68.8993 18.1283 68.7958 18.4926 68.4916C19.1725 67.9317 19.0693 66.9457 18.2618 66.2093C17.5818 65.5886 16.1125 64.8704 14.8436 64.5356C14.1575 64.3531 14.0724 64.347 12.7307 64.3287C11.905 64.3227 10.982 64.3468 10.472 64.3955ZM32.9852 49.3569C33.4648 49.4421 34.1388 49.5273 34.4848 49.5516L35.1041 49.5942L35.1101 50.0872C35.1101 50.3611 35.1587 51.907 35.2133 53.5259L35.3165 56.4715L34.8005 56.4289C33.7562 56.3558 32.0562 56.1307 32.038 56.0637C32.0198 56.0028 31.698 49.4421 31.704 49.1986C31.704 49.1134 31.7344 49.1073 31.9044 49.156C32.0198 49.1864 32.5055 49.2777 32.9852 49.3569Z" fill="#131313"/>
        </g>
        <defs>
          <clipPath id="clip0_5966_2642">
            <rect width="80" height="76" fill="white"/>
          </clipPath>
        </defs>
      </svg>
    </symbol>

    <symbol id="sharedArrow">
      <svg xmlns="http://www.w3.org/2000/svg" width="48" height="48" viewBox="0 0 48 48" fill="none">
        <path d="M24 16L22.59 17.41L28.17 23H16V25H28.17L22.59 30.59L24 32L32 24L24 16Z" fill="#131313"/>
        <rect x="0.5" y="0.5" width="47" height="47" rx="23.5" stroke="#131313"/>
      </svg>
    </symbol>

    <symbol id="colorFb">
      <svg width="24" height="24" viewBox="0 0 24 24" fill="none" xmlns="http://www.w3.org/2000/svg">
        <g id="logos:facebook" clip-path="url(#clip0_1764_6150)">
          <path id="Vector" d="M23.6365 12.0001C23.6365 5.76252 18.4267 0.705933 12.0001 0.705933C5.57359 0.705933 0.36377 5.76243 0.36377 12.0001C0.36377 17.6372 4.61904 22.3097 10.182 23.157V15.2648H7.22741V12.0001H10.182V9.51182C10.182 6.68123 11.9192 5.1177 14.5771 5.1177C15.8503 5.1177 17.1819 5.33829 17.1819 5.33829V8.1177H15.7147C14.269 8.1177 13.8183 8.98831 13.8183 9.88152V12.0001H17.0456L16.5297 15.2648H13.8183V23.157C19.3812 22.3097 23.6365 17.6373 23.6365 12.0001Z" fill="#1877F2"/>
          <path id="Vector_2" d="M16.5293 15.2647L17.0452 12H13.818V9.8815C13.818 8.9882 14.2688 8.11768 15.7143 8.11768H17.1816V5.33826C17.1816 5.33826 15.85 5.11768 14.5768 5.11768C11.9189 5.11768 10.1816 6.68121 10.1816 9.51179V12H7.22705V15.2647H10.1816V23.1569C10.7831 23.2484 11.391 23.2943 11.9998 23.2941C12.6086 23.2943 13.2165 23.2484 13.818 23.1569V15.2647H16.5293Z" fill="white"/>
        </g>
        <defs>
          <clipPath id="clip0_1764_6150">
            <rect width="24" height="24" fill="white"/>
          </clipPath>
        </defs>
      </svg>
    </symbol>
  </defs>

  <defs class="header">
    <symbol id="headerBurger">
      <svg width="24" height="16" viewBox="0 0 24 16" fill="none" xmlns="http://www.w3.org/2000/svg">
        <path d="M0 16H24V13.3333H0V16ZM0 9.33333H24V6.66667H0V9.33333ZM0 0V2.66667H24V0H0Z" fill="#131313"/>
      </svg>
    </symbol>

    <symbol id="headerClose">
      <svg width="20" height="20" viewBox="0 0 20 20" fill="none" xmlns="http://www.w3.org/2000/svg">
        <path d="M19.3332 2.54663L17.4532 0.666626L9.99984 8.11996L2.5465 0.666626L0.666504 2.54663L8.11984 9.99996L0.666504 17.4533L2.5465 19.3333L9.99984 11.88L17.4532 19.3333L19.3332 17.4533L11.8798 9.99996L19.3332 2.54663Z" fill="#666666"/>
      </svg>
    </symbol>

    <symbol id="headerSearch">
      <svg viewBox="0 0 27 27" fill="none" xmlns="http://www.w3.org/2000/svg">
        <path d="M24.2929 25.7071L25 26.4142L26.4142 25L25.7071 24.2929L24.2929 25.7071ZM19.9071 18.4929C19.5166 18.1024 18.8834 18.1024 18.4929 18.4929C18.1024 18.8834 18.1024 19.5166 18.4929 19.9071L19.9071 18.4929ZM21.3333 11.6667C21.3333 17.0054 17.0054 21.3333 11.6667 21.3333V23.3333C18.11 23.3333 23.3333 18.11 23.3333 11.6667H21.3333ZM11.6667 21.3333C6.32791 21.3333 2 17.0054 2 11.6667H0C0 18.11 5.22334 23.3333 11.6667 23.3333V21.3333ZM2 11.6667C2 6.32791 6.32791 2 11.6667 2V0C5.22334 0 0 5.22334 0 11.6667H2ZM11.6667 2C17.0054 2 21.3333 6.32791 21.3333 11.6667H23.3333C23.3333 5.22334 18.11 0 11.6667 0V2ZM25.7071 24.2929L19.9071 18.4929L18.4929 19.9071L24.2929 25.7071L25.7071 24.2929Z" fill="#131313"/>
      </svg>
    </symbol>
  </defs>

  <defs class="home-page">
    <symbol id="infoButton">
      <svg xmlns="http://www.w3.org/2000/svg" width="24" height="24" viewBox="0 0 24 24">
        <path
          d="M16.5 12.75C19.59 9.94 22.5 7.31 22.5 5.05C22.5 3.2 21.05 1.75 19.2 1.75C18.16 1.75 17.15 2.24 16.5 3C15.84 2.24 14.84 1.75 13.8 1.75C11.95 1.75 10.5 3.2 10.5 5.05C10.5 7.31 13.41 9.94 16.5 12.75ZM13.8 3.75C14.24 3.75 14.69 3.96 14.98 4.3L16.5 6.09L18.02 4.3C18.31 3.96 18.76 3.75 19.2 3.75C19.94 3.75 20.5 4.31 20.5 5.05C20.5 6.17 18.46 8.22 16.5 10.04C14.54 8.22 12.5 6.16 12.5 5.05C12.5 4.31 13.06 3.75 13.8 3.75Z"/>
        <path
          d="M19.5 15.75H17.5C17.5 14.55 16.75 13.47 15.63 13.05L9.47 10.75H1.5V21.75H7.5V20.31L14.5 22.25L22.5 19.75V18.75C22.5 17.09 21.16 15.75 19.5 15.75ZM3.5 19.75V12.75H5.5V19.75H3.5ZM14.47 20.16L7.5 18.23V12.75H9.11L14.93 14.92C15.27 15.05 15.5 15.38 15.5 15.75C15.5 15.75 13.51 15.7 13.2 15.6L10.82 14.81L10.19 16.71L12.57 17.5C13.08 17.67 13.61 17.76 14.15 17.76H19.5C19.89 17.76 20.24 17.99 20.4 18.32L14.47 20.16Z"/>
      </svg>
    </symbol>
  </defs>

  <defs class="map-page">
    <symbol id="filterIcon">
      <svg xmlns="http://www.w3.org/2000/svg" width="32" height="32" viewBox="0 0 32 32" fill="none">
        <path d="M26.6783 6H5L13.6713 16.2538V23.3426L18.007 25.5105V16.2538L26.6783 6Z"
          stroke="#131313"
          stroke-linecap="round" stroke-linejoin="round" />
      </svg>
    </symbol>
    <symbol id="filterClear">
      <svg xmlns="http://www.w3.org/2000/svg" width="16" height="16" viewBox="0 0 16 16" fill="none">
        <rect width="16" height="16" rx="8" fill="#FEFEFE" />
        <path fill-rule="evenodd" clip-rule="evenodd"
          d="M11.9796 7.60696C12.0867 8.6601 11.7691 9.71245 11.0968 10.5325C10.4244 11.3526 9.4524 11.8731 8.39451 11.9797C7.33663 12.0863 6.27954 11.7701 5.4558 11.1008C4.63207 10.4315 4.10915 9.46381 4.00209 8.41066C3.99159 8.31196 4.02091 8.21314 4.08359 8.13596C4.14628 8.05877 4.2372 8.00953 4.33635 7.99908C4.4355 7.98863 4.53476 8.01782 4.61229 8.08022C4.68982 8.14262 4.73928 8.23313 4.74978 8.33184C4.80766 8.87739 5.00362 9.39941 5.31933 9.84904C5.63503 10.2987 6.06016 10.6612 6.55493 10.9028C7.04969 11.1443 7.59793 11.2569 8.14832 11.2301C8.69872 11.2033 9.23328 11.0379 9.702 10.7495C10.1707 10.461 10.5583 10.0588 10.8284 9.58068C11.0985 9.10251 11.2423 8.56394 11.2464 8.01537C11.2505 7.4668 11.1147 6.92616 10.8518 6.44404C10.5889 5.96192 10.2074 5.55408 9.74306 5.25869V6.12027C9.74306 6.21951 9.70346 6.31468 9.63298 6.38485C9.56249 6.45502 9.46689 6.49444 9.36721 6.49444C9.26753 6.49444 9.17193 6.45502 9.10145 6.38485C9.03096 6.31468 8.99136 6.21951 8.99136 6.12027V4H11.1212C11.2209 4 11.3165 4.03942 11.3869 4.10959C11.4574 4.17976 11.497 4.27493 11.497 4.37417C11.497 4.4734 11.4574 4.56857 11.3869 4.63874C11.3165 4.70891 11.2209 4.74833 11.1212 4.74833H10.3264C10.7907 5.08001 11.1784 5.50666 11.4635 5.99968C11.7486 6.4927 11.9246 7.04071 11.9796 7.60696Z"
          fill="#454545" />
      </svg>
    </symbol>
    <symbol id="chipClear">
      <svg xmlns="http://www.w3.org/2000/svg" width="16" height="16" viewBox="0 0 16 16" fill="none">
        <rect width="16" height="16" rx="8" fill="#FEFEFE" />
        <path
          d="M12 4.80571L11.1943 4L8 7.19429L4.80571 4L4 4.80571L7.19429 8L4 11.1943L4.80571 12L8 8.80571L11.1943 12L12 11.1943L8.80571 8L12 4.80571Z"
          fill="#454545" />
      </svg>
    </symbol>
    <symbol id="selectClear">
      <svg xmlns="http://www.w3.org/2000/svg" width="12" height="12" viewBox="0 0 12 12" fill="none">
        <rect width="12" height="12" fill="#FEFEFE" />
        <path
          d="M9 3.60429L8.39571 3L6 5.39571L3.60429 3L3 3.60429L5.39571 6L3 8.39571L3.60429 9L6 6.60429L8.39571 9L9 8.39571L6.60429 6L9 3.60429Z"
          fill="#989898" />
      </svg>
    </symbol>
    <symbol id="arrowFilterShow">
      <svg xmlns="http://www.w3.org/2000/svg"
        width="24" height="24" viewBox="0 0 24 24" fill="none">
        <path d="M12 14.5L17 9.5H7L12 14.5Z" fill="#484848" />
      </svg>
    </symbol>
  </defs>

  <defs class="news-page">
    <symbol id="arrowArticleItem">
      <svg xmlns="http://www.w3.org/2000/svg" width="24" height="24" viewBox="0 0 24 24"
        fill="#131313">
        <path d="M6.5 5.5V7.5H15.09L5.5 17.09L6.91 18.5L16.5 8.91V17.5H18.5V5.5H6.5Z" fill="#131313" />
      </svg>
    </symbol>

    <symbol id="fbNews">
      <svg xmlns="http://www.w3.org/2000/svg" width="24" height="24" viewBox="0 0 24 24" fill="none">
        <path d="M13.5 13.125L15.375 13.125L16.125 10.125L13.5 10.125L13.5 8.625C13.5 7.8525 13.5 7.125 15 7.125L16.125 7.125L16.125 4.605C15.8805 4.57275 14.9573 4.5 13.9823 4.5C11.946 4.5 10.5 5.74275 10.5 8.025L10.5 10.125L8.25 10.125L8.25 13.125L10.5 13.125L10.5 19.5L13.5 19.5L13.5 13.125Z" fill="#989898"/>
      </svg>
    </symbol>

    <symbol id="instNews">
      <svg xmlns="http://www.w3.org/2000/svg" width="24" height="24" viewBox="0 0 24 24" fill="none">
        <path d="M12.0008 8.74994C11.1388 8.74994 10.3122 9.09235 9.7027 9.70185C9.09321 10.3113 8.7508 11.138 8.7508 11.9999C8.7508 12.8619 9.09321 13.6885 9.7027 14.298C10.3122 14.9075 11.1388 15.2499 12.0008 15.2499C12.8628 15.2499 13.6894 14.9075 14.2989 14.298C14.9084 13.6885 15.2508 12.8619 15.2508 11.9999C15.2508 11.138 14.9084 10.3113 14.2989 9.70185C13.6894 9.09235 12.8628 8.74994 12.0008 8.74994Z" fill="#989898"/>
        <path fill-rule="evenodd" clip-rule="evenodd" d="M6.7708 3.08194C10.2468 2.69664 13.7548 2.69664 17.2308 3.08194C19.1298 3.29394 20.6608 4.78894 20.8838 6.69494C21.296 10.2196 21.296 13.7803 20.8838 17.3049C20.6608 19.2109 19.1298 20.7059 17.2318 20.9189C13.7554 21.3044 10.2471 21.3044 6.7708 20.9189C4.8718 20.7059 3.3408 19.2109 3.1178 17.3059C2.70553 13.781 2.70553 10.2199 3.1178 6.69494C3.3408 4.78894 4.8718 3.29394 6.7708 3.08194ZM17.0008 5.99994C16.7356 5.99994 16.4812 6.1053 16.2937 6.29284C16.1062 6.48037 16.0008 6.73473 16.0008 6.99994C16.0008 7.26516 16.1062 7.51951 16.2937 7.70705C16.4812 7.89459 16.7356 7.99994 17.0008 7.99994C17.266 7.99994 17.5204 7.89459 17.7079 7.70705C17.8954 7.51951 18.0008 7.26516 18.0008 6.99994C18.0008 6.73473 17.8954 6.48037 17.7079 6.29284C17.5204 6.1053 17.266 5.99994 17.0008 5.99994ZM7.2508 11.9999C7.2508 10.7402 7.75124 9.53198 8.64204 8.64119C9.53284 7.75039 10.741 7.24994 12.0008 7.24994C13.2606 7.24994 14.4688 7.75039 15.3596 8.64119C16.2504 9.53198 16.7508 10.7402 16.7508 11.9999C16.7508 13.2597 16.2504 14.4679 15.3596 15.3587C14.4688 16.2495 13.2606 16.7499 12.0008 16.7499C10.741 16.7499 9.53284 16.2495 8.64204 15.3587C7.75124 14.4679 7.2508 13.2597 7.2508 11.9999Z" fill="#989898"/>
      </svg>
    </symbol>

    <symbol id="tgNews">
      <svg xmlns="http://www.w3.org/2000/svg" width="24" height="24" viewBox="0 0 22 18" fill="none">
        <path d="M19.7102 0.654509C19.7102 0.654509 21.6527 -0.102992 21.4902 1.73651C21.4367 2.49401 20.9512 5.14551 20.5732 8.01301L19.2782 16.508C19.2782 16.508 19.1702 17.7525 18.1987 17.969C17.2277 18.185 15.7707 17.2115 15.5007 16.995C15.2847 16.8325 11.4537 14.3975 10.1047 13.2075C9.72666 12.8825 9.29466 12.2335 10.1587 11.476L15.8242 6.06501C16.4717 5.41601 17.1192 3.90101 14.4212 5.74051L6.86616 10.8805C6.86616 10.8805 6.00266 11.422 4.38416 10.935L0.876159 9.85251C0.876159 9.85251 -0.418841 9.04101 1.79366 8.22951C7.19016 5.68651 13.8277 3.08951 19.7092 0.654509H19.7102Z" fill="#989898"/>
      </svg>
    </symbol>

    <symbol id="copyNews">
      <svg xmlns="http://www.w3.org/2000/svg" width="24" height="24" viewBox="0 0 24 24" fill="none">
        <path d="M17 7L13 7L13 9L17 9C18.65 9 20 10.35 20 12C20 13.65 18.65 15 17 15L13 15L13 17L17 17C19.76 17 22 14.76 22 12C22 9.24 19.76 7 17 7ZM11 15L7 15C5.35 15 4 13.65 4 12C4 10.35 5.35 9 7 9L11 9L11 7L7 7C4.24 7 2 9.24 2 12C2 14.76 4.24 17 7 17L11 17L11 15ZM8 11L16 11L16 13L8 13L8 11Z" fill="#989898"/>
      </svg>
    </symbol>
  </defs>

  <defs class="player">
    <symbol id="playDesktop">
      <svg class="listen__desktop" width="72" height="72" viewBox="0 0 72 72" fill="none"
           xmlns="http://www.w3.org/2000/svg">
        <rect x="0.5" y="0.5" width="71" height="71" rx="11.5" fill="#FEFEFE" />
        <path
          d="M48.4 33.9215C50 34.8453 50 37.1547 48.4 38.0785L31.6 47.7779C30 48.7017 28 47.547 28 45.6995L28 26.3005C28 24.453 30 23.2983 31.6 24.2221L48.4 33.9215Z"
          fill="#282828"
        />
        <rect x="0.5" y="0.5" width="71" height="71" rx="11.5" stroke="#DDDDDD" />
      </svg>
    </symbol>

    <symbol id="playMobile">
      <svg class="listen__mobile" width="56" height="56" viewBox="0 0 56 56" fill="none"
           xmlns="http://www.w3.org/2000/svg">
        <rect x="0.388889" y="0.388889" width="55.2222" height="55.2222" rx="8.94444" fill="#FEFEFE" />
        <path
          d="M37.6453 26.3833C38.8898 27.1018 38.8898 28.898 37.6453 29.6164L24.5786 37.1605C23.3342 37.879 21.7786 36.9809 21.7786 35.5439L21.7786 20.4558C21.7786 19.0189 23.3342 18.1208 24.5786 18.8392L37.6453 26.3833Z"
          fill="#282828"
        />
        <rect x="0.388889" y="0.388889" width="55.2222" height="55.2222" rx="8.94444"
              stroke="#DDDDDD" stroke-width="0.777778" />
      </svg>
    </symbol>

    <symbol id="backDesktopBtn">
      <svg width="22" height="15" viewBox="0 0 22 15" fill="none" xmlns="http://www.w3.org/2000/svg">
        <path
          d="M21.0037 12.5063C21.0044 12.705 20.9518 12.9003 20.8515 13.071C20.7512 13.2417 20.6071 13.3814 20.4345 13.4751C20.2648 13.5784 20.0708 13.633 19.873 13.633C19.6752 13.633 19.4811 13.5784 19.3115 13.4751L11.4969 8.31813C11.3444 8.21924 11.2189 8.08294 11.132 7.9218C11.0451 7.76065 10.9995 7.57986 10.9995 7.39611C10.9995 7.21236 11.0451 7.03157 11.132 6.87043C11.2189 6.70928 11.3444 6.57298 11.4969 6.4741L19.3115 1.28582C19.4811 1.18253 19.6752 1.12798 19.873 1.12798C20.0708 1.12798 20.2648 1.18253 20.4345 1.28582C20.6071 1.37954 20.7512 1.51926 20.8515 1.68997C20.9518 1.86068 21.0044 2.05592 21.0037 2.25471V12.5063Z"
          fill="#282828"
          stroke="#282828"
          stroke-linecap="round"
          stroke-linejoin="round"
        />
        <path
          d="M11.0037 12.5063C11.0044 12.705 10.9518 12.9003 10.8515 13.071C10.7512 13.2417 10.6071 13.3814 10.4345 13.4751C10.2648 13.5784 10.0708 13.633 9.87299 13.633C9.67521 13.633 9.48115 13.5784 9.31151 13.4751L1.49686 8.31813C1.3444 8.21924 1.21892 8.08294 1.132 7.9218C1.04508 7.76065 0.999513 7.57986 0.999513 7.39611C0.999513 7.21236 1.04508 7.03157 1.132 6.87043C1.21892 6.70928 1.3444 6.57298 1.49686 6.4741L9.31151 1.28582C9.48115 1.18253 9.67521 1.12798 9.87299 1.12798C10.0708 1.12798 10.2648 1.18253 10.4345 1.28582C10.6025 1.37699 10.7437 1.51182 10.8437 1.67655C10.9437 1.84127 10.9989 2.02999 11.0037 2.22346V12.5063Z"
          fill="#282828"
          stroke="#282828"
          stroke-linecap="round"
          stroke-linejoin="round"
        />
      </svg>
    </symbol>

    <symbol id="prevDesktopBtn">
      <svg width="15" height="19" viewBox="0 0 15 19" fill="none" xmlns="http://www.w3.org/2000/svg">
        <path d="M1.01465 1.38086V17.9621" stroke="#282828" stroke-width="1.5" stroke-linecap="round" stroke-linejoin="round" />
        <path
          d="M13.9895 15.6151C13.9901 15.8446 13.9298 16.0699 13.8149 16.2675C13.7 16.465 13.5348 16.6274 13.3366 16.7375C13.1458 16.8495 12.9293 16.9084 12.7089 16.9084C12.4885 16.9084 12.272 16.8495 12.0811 16.7375L3.05369 10.7428C2.87748 10.6271 2.73259 10.4685 2.63227 10.2813C2.53194 10.0942 2.47938 9.88448 2.47938 9.67137C2.47938 9.45826 2.53194 9.24855 2.63227 9.0614C2.73259 8.87424 2.87748 8.7156 3.05369 8.59997L12.1062 2.65623C12.2971 2.54429 12.5136 2.48535 12.734 2.48535C12.9544 2.48535 13.1709 2.54429 13.3618 2.65623C13.5599 2.76637 13.7251 2.92876 13.84 3.1263C13.9549 3.32384 14.0153 3.54921 14.0146 3.77866L13.9895 15.6151Z"
          fill="#282828"
          stroke="#282828"
          stroke-linecap="round"
          stroke-linejoin="round"
        />
      </svg>
    </symbol>

    <symbol id="playDesktopBtn">
      <svg width="31" height="31" viewBox="0 0 31 31" fill="none" xmlns="http://www.w3.org/2000/svg">
        <path
          d="M15.5 0C6.944 0 0 6.7456 0 15.0571C0 23.3687 6.944 30.1143 15.5 30.1143C24.056 30.1143 31 23.3687 31 15.0571C31 6.7456 24.056 0 15.5 0ZM12.4 21.8329V8.28143L21.7 15.0571L12.4 21.8329Z"
          fill="#131313"
        />
      </svg>
    </symbol>

    <symbol id="pauseDesktopBtn">
      <svg width="32" height="31" viewBox="0 0 32 31" fill="none" xmlns="http://www.w3.org/2000/svg">
        <circle cx="15.5146" cy="15.5" r="15.5" fill="#282828" />
        <path
          d="M13.7096 10.2391H11.4889C10.9983 10.2391 10.6006 10.6431 10.6006 11.1415V21.0676C10.6006 21.566 10.9983 21.97 11.4889 21.97H13.7096C14.2001 21.97 14.5978 21.566 14.5978 21.0676V11.1415C14.5978 10.6431 14.2001 10.2391 13.7096 10.2391Z"
          fill="#FEFEFE"
        />
        <path
          d="M20.2994 10.2392H18.0787C17.5881 10.2392 17.1904 10.6432 17.1904 11.1415V21.0677C17.1904 21.5661 17.5881 21.9701 18.0787 21.9701H20.2994C20.79 21.9701 21.1877 21.5661 21.1877 21.0677V11.1415C21.1877 10.6432 20.79 10.2392 20.2994 10.2392Z"
          fill="#FEFEFE"
        />
      </svg>
    </symbol>

    <symbol id="nextDesktopBtn">
      <svg width="15" height="19" viewBox="0 0 15 19" fill="none" xmlns="http://www.w3.org/2000/svg">
        <path d="M14.0146 1.38086V17.9621" stroke="#282828" stroke-width="1.5" stroke-linecap="round" stroke-linejoin="round" />
        <path
          d="M1.03976 15.6151C1.03915 15.8446 1.09947 16.0699 1.21437 16.2675C1.32928 16.465 1.49451 16.6274 1.69265 16.7375C1.88352 16.8495 2.10003 16.9084 2.32043 16.9084C2.54082 16.9084 2.75733 16.8495 2.9482 16.7375L11.9756 10.7428C12.1518 10.6271 12.2967 10.4685 12.397 10.2813C12.4974 10.0942 12.5499 9.88448 12.5499 9.67137C12.5499 9.45826 12.4974 9.24855 12.397 9.0614C12.2967 8.87424 12.1518 8.7156 11.9756 8.59997L2.92309 2.65623C2.73222 2.54429 2.51571 2.48535 2.29531 2.48535C2.07492 2.48535 1.85841 2.54429 1.66754 2.65623C1.4694 2.76637 1.30417 2.92876 1.18926 3.1263C1.07436 3.32384 1.01404 3.54921 1.01465 3.77866L1.03976 15.6151Z"
          fill="#282828"
          stroke="#282828"
          stroke-linecap="round"
          stroke-linejoin="round"
        />
      </svg>
    </symbol>

    <symbol id="forwardDesktopBtn">
      <svg width="22" height="15" viewBox="0 0 22 15" fill="none" xmlns="http://www.w3.org/2000/svg">
        <path
          d="M1.30372 12.5062C1.30297 12.705 1.35557 12.9002 1.45585 13.071C1.55614 13.2417 1.70031 13.3814 1.8729 13.4751C2.04254 13.5784 2.2366 13.6329 2.43438 13.6329C2.63216 13.6329 2.82623 13.5784 2.99587 13.4751L10.8105 8.31808C10.963 8.2192 11.0885 8.08289 11.1754 7.92175C11.2623 7.76061 11.3079 7.57982 11.3079 7.39607C11.3079 7.21232 11.2623 7.03153 11.1754 6.87038C11.0885 6.70924 10.963 6.57294 10.8105 6.47405L2.99587 1.28577C2.82623 1.18249 2.63216 1.12793 2.43438 1.12793C2.2366 1.12793 2.04254 1.18249 1.8729 1.28577C1.70031 1.37949 1.55614 1.51921 1.45585 1.68992C1.35557 1.86063 1.30297 2.05587 1.30372 2.25467V12.5062Z"
          fill="#282828"
          stroke="#282828"
          stroke-linecap="round"
          stroke-linejoin="round"
        />
        <path
          d="M11.3037 12.5062C11.303 12.705 11.3556 12.9002 11.4559 13.071C11.5561 13.2417 11.7003 13.3814 11.8729 13.4751C12.0425 13.5784 12.2366 13.6329 12.4344 13.6329C12.6322 13.6329 12.8262 13.5784 12.9959 13.4751L20.8105 8.31808C20.963 8.2192 21.0885 8.08289 21.1754 7.92175C21.2623 7.76061 21.3079 7.57982 21.3079 7.39607C21.3079 7.21232 21.2623 7.03153 21.1754 6.87038C21.0885 6.70924 20.963 6.57294 20.8105 6.47405L12.9959 1.28577C12.8262 1.18249 12.6322 1.12793 12.4344 1.12793C12.2366 1.12793 12.0425 1.18249 11.8729 1.28577C11.7049 1.37695 11.5636 1.51178 11.4636 1.6765C11.3637 1.84122 11.3085 2.02995 11.3037 2.22341V12.5062Z"
          fill="#282828"
          stroke="#282828"
          stroke-linecap="round"
          stroke-linejoin="round"
        />
      </svg>
    </symbol>

    <symbol id="backwardMobileBtn">
      <svg width="47" height="32" viewBox="0 0 47 32" fill="none" xmlns="http://www.w3.org/2000/svg">
        <path
          d="M44.9687 27.7415C44.9703 28.1969 44.8574 28.6441 44.642 29.0352C44.4266 29.4262 44.1169 29.7463 43.7462 29.961C43.3818 30.1976 42.965 30.3225 42.5401 30.3225C42.1153 30.3225 41.6985 30.1976 41.3341 29.961L24.5487 18.1478C24.2212 17.9213 23.9517 17.6091 23.765 17.2399C23.5783 16.8708 23.4804 16.4567 23.4804 16.0357C23.4804 15.6148 23.5783 15.2007 23.765 14.8316C23.9517 14.4624 24.2212 14.1502 24.5487 13.9237L41.3341 2.03894C41.6985 1.80234 42.1153 1.67737 42.5401 1.67737C42.965 1.67737 43.3818 1.80234 43.7462 2.03894C44.1169 2.25362 44.4266 2.57367 44.642 2.96472C44.8574 3.35576 44.9703 3.803 44.9687 4.25838V27.7415Z"
          fill="#282828"
          stroke="#282828"
          stroke-width="2.3871"
          stroke-linecap="round"
          stroke-linejoin="round"
        />
        <path
          d="M23.4883 27.7415C23.4899 28.1969 23.3769 28.6441 23.1615 29.0352C22.9461 29.4262 22.6364 29.7463 22.2657 29.961C21.9013 30.1976 21.4845 30.3225 21.0597 30.3225C20.6349 30.3225 20.218 30.1976 19.8536 29.961L3.06822 18.1478C2.74075 17.9213 2.47123 17.6091 2.28452 17.2399C2.09782 16.8708 1.99995 16.4567 1.99995 16.0357C1.99995 15.6148 2.09782 15.2007 2.28452 14.8316C2.47123 14.4624 2.74075 14.1502 3.06822 13.9237L19.8536 2.03894C20.218 1.80234 20.6349 1.67737 21.0597 1.67737C21.4845 1.67737 21.9013 1.80234 22.2657 2.03894C22.6266 2.24779 22.93 2.55664 23.1447 2.93397C23.3595 3.31131 23.4781 3.74362 23.4883 4.18679V27.7415Z"
          fill="#282828"
          stroke="#282828"
          stroke-width="2.3871"
          stroke-linecap="round"
          stroke-linejoin="round"
        />
      </svg>
    </symbol>

    <symbol id="playMobileBtn">
      <svg width="74" height="74" viewBox="0 0 74 74" fill="none" xmlns="http://www.w3.org/2000/svg">
        <path
          d="M37 0C16.576 0 0 16.576 0 37C0 57.424 16.576 74 37 74C57.424 74 74 57.424 74 37C74 16.576 57.424 0 37 0ZM29.6 53.65V20.35L51.8 37L29.6 53.65Z"
          fill="#131313"
        />
      </svg>
    </symbol>

    <symbol id="pauseMobileBtn">
      <svg width="74" height="74" viewBox="0 0 74 74" fill="none" xmlns="http://www.w3.org/2000/svg">
        <ellipse cx="36.9997" cy="37" rx="36.82" ry="37" fill="#282828" />
        <path
          d="M32.7775 23.871H28.1596C27.1395 23.871 26.3125 24.8354 26.3125 26.025V49.7198C26.3125 50.9094 27.1395 51.8738 28.1596 51.8738H32.7775C33.7976 51.8738 34.6246 50.9094 34.6246 49.7198V26.025C34.6246 24.8354 33.7976 23.871 32.7775 23.871Z"
          fill="#FEFEFE"
        />
        <path
          d="M46.4806 23.871H41.8628C40.8426 23.871 40.0156 24.8354 40.0156 26.025V49.7198C40.0156 50.9094 40.8426 51.8738 41.8628 51.8738H46.4806C47.5007 51.8738 48.3277 50.9094 48.3277 49.7198V26.025C48.3277 24.8354 47.5007 23.871 46.4806 23.871Z"
          fill="#FEFEFE"
        />
      </svg>
    </symbol>

    <symbol id="forwardMobileBtn">
      <svg width="47" height="32" viewBox="0 0 47 32" fill="none" xmlns="http://www.w3.org/2000/svg">
        <path
          d="M2.03127 27.7415C2.02967 28.1969 2.14264 28.6441 2.35804 29.0352C2.57344 29.4262 2.88313 29.7463 3.25383 29.961C3.61821 30.1976 4.03505 30.3225 4.45986 30.3225C4.88468 30.3225 5.30152 30.1976 5.6659 29.961L22.4513 18.1478C22.7788 17.9213 23.0483 17.6091 23.235 17.2399C23.4217 16.8708 23.5196 16.4567 23.5196 16.0357C23.5196 15.6148 23.4217 15.2007 23.235 14.8316C23.0483 14.4624 22.7788 14.1502 22.4513 13.9237L5.6659 2.03894C5.30152 1.80234 4.88468 1.67737 4.45986 1.67737C4.03505 1.67737 3.61821 1.80234 3.25383 2.03894C2.88313 2.25362 2.57344 2.57367 2.35804 2.96472C2.14264 3.35576 2.02967 3.803 2.03127 4.25838V27.7415Z"
          fill="#282828"
          stroke="#282828"
          stroke-width="2.3871"
          stroke-linecap="round"
          stroke-linejoin="round"
        />
        <path
          d="M23.5117 27.7415C23.5101 28.1969 23.6231 28.6441 23.8385 29.0352C24.0539 29.4262 24.3636 29.7463 24.7343 29.961C25.0987 30.1976 25.5155 30.3225 25.9403 30.3225C26.3651 30.3225 26.782 30.1976 27.1464 29.961L43.9318 18.1478C44.2592 17.9213 44.5288 17.6091 44.7155 17.2399C44.9022 16.8708 45 16.4567 45 16.0357C45 15.6148 44.9022 15.2007 44.7155 14.8316C44.5288 14.4624 44.2592 14.1502 43.9318 13.9237L27.1464 2.03894C26.782 1.80234 26.3651 1.67737 25.9403 1.67737C25.5155 1.67737 25.0987 1.80234 24.7343 2.03894C24.3734 2.24779 24.07 2.55664 23.8553 2.93397C23.6405 3.31131 23.5219 3.74362 23.5117 4.18679V27.7415Z"
          fill="#282828"
          stroke="#282828"
          stroke-width="2.3871"
          stroke-linecap="round"
          stroke-linejoin="round"
        />
      </svg>
    </symbol>
  </defs>

  <defs class="about-page">
    <symbol id="arrowBack">
      <svg xmlns="http://www.w3.org/2000/svg" width="48" height="48" viewBox="0 0 48 48" fill="none">
        <path d="M32 23H19.83L25.42 17.41L24 16L16 24L24 32L25.41 30.59L19.83 25H32V23Z"
              fill="#989898" />
        <rect x="0.5" y="0.5" width="47" height="47" rx="23.5" stroke="#989898" />
      </svg>
    </symbol>

    <symbol id="arrowForward">
      <svg xmlns="http://www.w3.org/2000/svg" width="48" height="48" viewBox="0 0 48 48" fill="none">
        <path d="M24 16L22.59 17.41L28.17 23H16V25H28.17L22.59 30.59L24 32L32 24L24 16Z"
              fill="#131313" />
        <rect x="0.5" y="0.5" width="47" height="47" rx="23.5" stroke="#131313" />
      </svg>
    </symbol>
  </defs>

  <symbol id="arrowOutward">
    <svg width="24" height="24" viewBox="0 0 24 24" fill="none" xmlns="http://www.w3.org/2000/svg">
      <path d="M6.5 18.5V16.5H15.09L5.5 6.91L6.91 5.5L16.5 15.09V6.5H18.5V18.5H6.5Z" fill="#FEFEFE" />
    </svg>
  </symbol>

  <symbol id="paginationNext">
    <svg width="24" height="24" viewBox="0 0 24 24">
      <path d="M10.56 12L11.5 11.06L8.44667 8L11.5 4.94L10.56 4L6.56 8L10.56 12Z" fill="#131313" />
    </svg>
  </symbol>

  <defs class="footer">
    <symbol id="iconFb">
      <svg width="40" height="40" viewBox="0 0 40 40" fill="none" xmlns="http://www.w3.org/2000/svg">
        <path d="M21.5 21.125L23.375 21.125L24.125 18.125L21.5 18.125L21.5 16.625C21.5 15.8525 21.5 15.125 23 15.125L24.125 15.125L24.125 12.605C23.8805 12.5728 22.9573 12.5 21.9823 12.5C19.946 12.5 18.5 13.7427 18.5 16.025L18.5 18.125L16.25 18.125L16.25 21.125L18.5 21.125L18.5 27.5L21.5 27.5L21.5 21.125Z" fill="#FFE600"/>
        <rect x="0.5" y="0.5" width="39" height="39" rx="19.5" stroke="#FFE600"/>
      </svg>
    </symbol>

    <symbol id="iconYouTube">
      <svg width="40" height="40" viewBox="0 0 40 40" fill="none" xmlns="http://www.w3.org/2000/svg">
        <path d="M27.1573 15.8735C27.5 17.21 27.5 20 27.5 20C27.5 20 27.5 22.79 27.1573 24.1265C26.9668 24.8653 26.4095 25.4465 25.7038 25.643C24.422 26 20 26 20 26C20 26 15.5803 26 14.2963 25.643C13.5875 25.4435 13.031 24.863 12.8428 24.1265C12.5 22.79 12.5 20 12.5 20C12.5 20 12.5 17.21 12.8428 15.8735C13.0333 15.1348 13.5905 14.5535 14.2963 14.357C15.5803 14 20 14 20 14C20 14 24.422 14 25.7038 14.357C26.4125 14.5565 26.969 15.137 27.1573 15.8735ZM18.5 22.625L23 20L18.5 17.375L18.5 22.625Z" fill="#FFE600"/>
        <rect x="0.5" y="0.5" width="39" height="39" rx="19.5" stroke="#FFE600"/>
      </svg>
    </symbol>
  </defs>
</svg>
